<svg width="20" height="23" viewBox="0 0 20 23" fill="none" xmlns="http://www.w3.org/2000/svg">
<path d="M19.5633 11.0508H16.3313V0.449254C16.3313 0.26759 16.2248 0.10376 16.0617 0.0342205C15.8985 -0.0353636 15.7106 0.00317942 15.5858 0.131566L14.3487 1.40411L13.1117 0.131611C12.9411 -0.0438089 12.6646 -0.0438089 12.4941 0.131611L11.257 1.40416L10.0201 0.131611C9.84955 -0.0438089 9.57303 -0.0438089 9.40246 0.131611L8.1654 1.40416L6.9283 0.131611C6.75777 -0.0438089 6.48126 -0.0438089 6.31073 0.131611L5.07367 1.40416L3.8367 0.131611C3.66617 -0.0438089 3.38966 -0.0438089 3.21909 0.131611L1.98203 1.40416L0.745011 0.131611C0.575531 -0.0427307 0.30142 -0.0436292 0.130455 0.12914C0.0406713 0.219928 -0.00286688 0.340902 0.000146287 0.461068V20.6642C0.000146287 21.9522 1.01877 23 2.27085 23H17.7287C18.9808 23 20 21.9522 20 20.6642V11.5C20 11.2519 19.8045 11.0508 19.5633 11.0508ZM2.27085 22.1016C1.50031 22.1016 0.873485 21.4567 0.873485 20.6641V1.53434L1.67324 2.35704C1.84377 2.53246 2.12028 2.53246 2.29085 2.35704L3.52791 1.08449L4.76497 2.35704C4.9355 2.53246 5.21201 2.53246 5.38259 2.35704L6.61965 1.08449L7.85675 2.35704C8.02728 2.53246 8.30379 2.53246 8.47432 2.35704L9.71138 1.08449L10.9484 2.35704C11.119 2.53246 11.3955 2.53246 11.566 2.35704L12.8031 1.08449L14.0402 2.35704C14.2107 2.53246 14.4873 2.53246 14.6577 2.35704L15.4581 1.53371V11.5C15.4581 11.5041 15.4586 11.5081 15.4588 11.5122V20.6641C15.4588 21.206 15.6395 21.7049 15.9416 22.1016H2.27085ZM19.1266 20.6641C19.1266 21.4567 18.4997 22.1016 17.7292 22.1016C16.9587 22.1016 16.3319 21.4567 16.3319 20.6641V11.9492H19.1266V20.6641Z" fill="#9FA5AD"/>
<path d="M8.16549 7.13604C7.73207 7.13604 7.37949 6.82545 7.37949 6.44375C7.37949 6.06201 7.73211 5.75142 8.16549 5.75142C8.5989 5.75142 8.95149 6.06201 8.95149 6.44375C8.95149 6.69186 9.14699 6.89297 9.38818 6.89297C9.62936 6.89297 9.82487 6.69186 9.82487 6.44375C9.82487 5.71148 9.30591 5.09362 8.60218 4.90936V4.60505C8.60218 4.35695 8.40667 4.15584 8.16549 4.15584C7.9243 4.15584 7.7288 4.35695 7.7288 4.60505V4.90936C7.02502 5.09362 6.5061 5.71153 6.5061 6.44375C6.5061 7.32085 7.25053 8.03444 8.16549 8.03444C8.5989 8.03444 8.95149 8.34503 8.95149 8.72677C8.95149 9.10852 8.5989 9.41906 8.16549 9.41906C7.73207 9.41906 7.37949 9.10847 7.37949 8.72677C7.37949 8.47867 7.18398 8.27755 6.94279 8.27755C6.70161 8.27755 6.5061 8.47867 6.5061 8.72677C6.5061 9.45904 7.02507 10.0769 7.7288 10.2612V10.6277C7.7288 10.8758 7.9243 11.077 8.16549 11.077C8.40667 11.077 8.60218 10.8758 8.60218 10.6277V10.2612C9.30595 10.0769 9.82487 9.45904 9.82487 8.72677C9.82487 7.84967 9.08044 7.13604 8.16549 7.13604Z" fill="#9FA5AD"/>
<path d="M12.5529 7.13612H11.7018C11.4606 7.13612 11.2651 7.33724 11.2651 7.58534C11.2651 7.83344 11.4606 8.03456 11.7018 8.03456H12.5529C12.7941 8.03456 12.9896 7.83344 12.9896 7.58534C12.9896 7.33724 12.7941 7.13612 12.5529 7.13612Z" fill="#9FA5AD"/>
<path d="M4.62984 7.13612H3.77873C3.53755 7.13612 3.34204 7.33724 3.34204 7.58534C3.34204 7.83344 3.53755 8.03456 3.77873 8.03456H4.62984C4.87103 8.03456 5.06654 7.83344 5.06654 7.58534C5.06654 7.33724 4.87103 7.13612 4.62984 7.13612Z" fill="#9FA5AD"/>
<path d="M12.7741 12.1292H5.85588C5.6147 12.1292 5.41919 12.3303 5.41919 12.5784C5.41919 12.8265 5.6147 13.0276 5.85588 13.0276H12.7741C13.0153 13.0276 13.2108 12.8265 13.2108 12.5784C13.2107 12.3303 13.0153 12.1292 12.7741 12.1292Z" fill="#9FA5AD"/>
<path d="M3.86604 12.2608C3.78481 12.1773 3.67215 12.1292 3.5573 12.1292C3.44245 12.1292 3.32978 12.1773 3.24856 12.2608C3.16733 12.3444 3.12061 12.4603 3.12061 12.5784C3.12061 12.6966 3.16733 12.8124 3.24856 12.896C3.32978 12.9796 3.44245 13.0276 3.5573 13.0276C3.67215 13.0276 3.78481 12.9796 3.86604 12.896C3.94726 12.8124 3.99399 12.6966 3.99399 12.5784C3.99399 12.4603 3.94726 12.3444 3.86604 12.2608Z" fill="#9FA5AD"/>
<path d="M12.7741 15.0939H5.85588C5.6147 15.0939 5.41919 15.2951 5.41919 15.5432C5.41919 15.7913 5.6147 15.9924 5.85588 15.9924H12.7741C13.0153 15.9924 13.2108 15.7913 13.2108 15.5432C13.2107 15.2951 13.0153 15.0939 12.7741 15.0939Z" fill="#9FA5AD"/>
<path d="M3.86604 15.2256C3.78481 15.142 3.67215 15.0939 3.5573 15.0939C3.44245 15.0939 3.32978 15.142 3.24856 15.2256C3.16733 15.3091 3.12061 15.425 3.12061 15.5432C3.12061 15.6613 3.16733 15.7772 3.24856 15.8608C3.32978 15.9443 3.44245 15.9924 3.5573 15.9924C3.67215 15.9924 3.78481 15.9443 3.86604 15.8608C3.94726 15.7772 3.99399 15.6613 3.99399 15.5432C3.99399 15.425 3.94726 15.3091 3.86604 15.2256Z" fill="#9FA5AD"/>
<path d="M12.7741 18.0587H5.85588C5.6147 18.0587 5.41919 18.2598 5.41919 18.5079C5.41919 18.756 5.6147 18.9571 5.85588 18.9571H12.7741C13.0153 18.9571 13.2108 18.756 13.2108 18.5079C13.2108 18.2598 13.0153 18.0587 12.7741 18.0587Z" fill="#9FA5AD"/>
<path d="M3.86604 18.1903C3.78481 18.1068 3.67215 18.0587 3.5573 18.0587C3.44245 18.0587 3.32978 18.1068 3.24856 18.1903C3.16733 18.2739 3.12061 18.3898 3.12061 18.5079C3.12061 18.6261 3.16733 18.7419 3.24856 18.8255C3.32978 18.9091 3.44245 18.9571 3.5573 18.9571C3.67215 18.9571 3.78481 18.9091 3.86604 18.8255C3.94726 18.7419 3.99399 18.6261 3.99399 18.5079C3.99399 18.3898 3.94726 18.2739 3.86604 18.1903Z" fill="#9FA5AD"/>
</svg>
