<svg width="20" height="22" viewBox="0 0 20 22" fill="none" xmlns="http://www.w3.org/2000/svg">
<path d="M19.6429 1.46667H17.1429V0.366667C17.1429 0.1639 16.9832 0 16.7857 0H14.2857C14.0882 0 13.9286 0.1639 13.9286 0.366667V1.46667H6.07143V0.366667C6.07143 0.1639 5.91179 0 5.71429 0H3.21429C3.01679 0 2.85714 0.1639 2.85714 0.366667V1.46667H0.357143C0.159643 1.46667 0 1.63057 0 1.83333V5.86667V21.6333C0 21.8361 0.159643 22 0.357143 22H19.6429C19.8404 22 20 21.8361 20 21.6333V5.86667V1.83333C20 1.63057 19.8404 1.46667 19.6429 1.46667ZM14.6429 0.733333H16.4286V1.83333V2.93333H14.6429V1.83333V0.733333ZM3.57143 0.733333H5.35714V1.83333V2.93333H3.57143V1.83333V0.733333ZM0.714286 2.2H2.85714V3.3C2.85714 3.50277 3.01679 3.66667 3.21429 3.66667H5.71429C5.91179 3.66667 6.07143 3.50277 6.07143 3.3V2.2H13.9286V3.3C13.9286 3.50277 14.0882 3.66667 14.2857 3.66667H16.7857C16.9832 3.66667 17.1429 3.50277 17.1429 3.3V2.2H19.2857V5.5H0.714286V2.2ZM0.714286 21.2667V6.23333H19.2857V21.2667H0.714286Z" fill="#9FA5AD"/>
<path d="M12.8567 8.43329H10.3567H9.64244H7.14244H6.42815H3.21387V11.7333V12.4666V15.0333V15.7666V19.0666H6.42815H7.14244H9.64244H10.3567H12.8567H13.571H16.7853V15.7666V15.0333V12.4666V11.7333V8.43329H13.571H12.8567ZM10.3567 9.16662H12.8567V11.7333H10.3567V9.16662ZM12.8567 15.0333H10.3567V12.4666H12.8567V15.0333ZM7.14244 12.4666H9.64244V15.0333H7.14244V12.4666ZM7.14244 9.16662H9.64244V11.7333H7.14244V9.16662ZM3.92815 9.16662H6.42815V11.7333H3.92815V9.16662ZM3.92815 12.4666H6.42815V15.0333H3.92815V12.4666ZM6.42815 18.3333H3.92815V15.7666H6.42815V18.3333ZM9.64244 18.3333H7.14244V15.7666H9.64244V18.3333ZM12.8567 18.3333H10.3567V15.7666H12.8567V18.3333ZM16.071 18.3333H13.571V15.7666H16.071V18.3333ZM16.071 15.0333H13.571V12.4666H16.071V15.0333ZM16.071 9.16662V11.7333H13.571V9.16662H16.071Z" fill="#9FA5AD"/>
</svg>
