<svg width="21" height="22" viewBox="0 0 21 22" fill="none" xmlns="http://www.w3.org/2000/svg">
<path d="M13.6787 11.2269H7.16504C6.80548 11.2269 6.51367 11.5228 6.51367 11.8873C6.51367 12.2518 6.80548 12.5477 7.16504 12.5477H13.6787C14.0383 12.5477 14.3301 12.2518 14.3301 11.8873C14.3301 11.5228 14.0383 11.2269 13.6787 11.2269ZM14.9814 7.26446H5.8623C5.50275 7.26446 5.21094 7.56032 5.21094 7.92487C5.21094 8.28941 5.50275 8.58527 5.8623 8.58527H14.9814C15.341 8.58527 15.6328 8.28941 15.6328 7.92487C15.6328 7.56032 15.341 7.26446 14.9814 7.26446ZM10.4219 0C4.66641 0 0 4.13941 0 9.24568C0 12.164 1.52745 14.762 3.9082 16.4567V21.133L8.47363 18.3243C9.10548 18.43 9.75552 18.4914 10.4219 18.4914C16.178 18.4914 20.8438 14.352 20.8438 9.24568C20.8438 4.13941 16.178 0 10.4219 0ZM10.4219 17.1705C9.66108 17.1705 8.92634 17.0807 8.22024 16.9282L5.15358 18.7971L5.19462 15.7342C2.84388 14.3004 1.30273 11.9309 1.30273 9.24568C1.30273 4.86918 5.38549 1.32081 10.4219 1.32081C15.4583 1.32081 19.541 4.86918 19.541 9.24568C19.541 13.6222 15.4583 17.1705 10.4219 17.1705Z" fill="#9FA5AD"/>
</svg>
