<svg width="22" height="19" viewBox="0 0 22 19" fill="none" xmlns="http://www.w3.org/2000/svg">
<g opacity="0.6">
<path d="M17.684 19C17.5806 19 17.4783 18.9635 17.3962 18.8933L12.9371 15.0757H3.05822C1.3719 15.0757 0 13.6825 0 11.97V3.10568C0 1.39319 1.3719 0 3.05822 0H18.9418C20.6281 0 22 1.39324 22 3.10568V11.97C22 13.6825 20.6281 15.0757 18.9418 15.0757H18.1304V18.5466C18.1304 18.723 18.0297 18.8834 17.8722 18.9577C17.8121 18.9861 17.7478 19 17.684 19ZM3.05822 0.906848C1.8643 0.906848 0.892976 1.89323 0.892976 3.10568V11.97C0.892976 13.1824 1.8643 14.1688 3.05822 14.1688H13.1002C13.2055 14.1688 13.3074 14.2066 13.388 14.2755L17.2374 17.5713V14.6222C17.2374 14.3718 17.4374 14.1688 17.684 14.1688H18.9418C20.1357 14.1688 21.107 13.1824 21.107 11.97V3.10568C21.107 1.89323 20.1357 0.906848 18.9418 0.906848H3.05822Z" fill="white"/>
<path d="M18.1917 5.07768H3.80926C3.56268 5.07768 3.36279 4.87463 3.36279 4.62425C3.36279 4.37383 3.56268 4.17083 3.80926 4.17083H18.1916C18.4382 4.17083 18.6381 4.37383 18.6381 4.62425C18.6381 4.87463 18.4383 5.07768 18.1917 5.07768Z" fill="white"/>
<path d="M18.1912 7.9812H3.80877C3.56219 7.9812 3.3623 7.77816 3.3623 7.52778C3.3623 7.27735 3.56219 7.07436 3.80877 7.07436H18.1912C18.4377 7.07436 18.6376 7.27735 18.6376 7.52778C18.6376 7.77816 18.4378 7.9812 18.1912 7.9812Z" fill="white"/>
<path d="M18.1912 10.8847H3.80877C3.56219 10.8847 3.3623 10.6816 3.3623 10.4313C3.3623 10.1808 3.56219 9.97784 3.80877 9.97784H18.1912C18.4377 9.97784 18.6376 10.1808 18.6376 10.4313C18.6376 10.6816 18.4378 10.8847 18.1912 10.8847Z" fill="white"/>
</g>
</svg>
