<svg width="833" height="391" viewBox="0 0 833 391" fill="none" xmlns="http://www.w3.org/2000/svg">
<path d="M82.3623 320V312.891H84.3496C84.9323 312.891 85.4548 313.024 85.917 313.291C86.3792 313.555 86.7389 313.934 86.9961 314.429C87.2565 314.924 87.3867 315.487 87.3867 316.118V316.772C87.3867 317.407 87.2581 317.97 87.001 318.462C86.7438 318.953 86.3809 319.333 85.9121 319.6C85.4466 319.867 84.9111 320 84.3057 320H82.3623ZM82.9629 313.403V319.492H84.3105C85.0592 319.492 85.6598 319.245 86.1123 318.75C86.5648 318.252 86.791 317.58 86.791 316.733V316.108C86.791 315.291 86.568 314.637 86.1221 314.146C85.6761 313.654 85.0885 313.407 84.3594 313.403H82.9629ZM92.6455 318.008H89.418L88.6855 320H88.0557L90.7461 312.891H91.3174L94.0078 320H93.3828L92.6455 318.008ZM89.6035 317.495H92.4551L91.0293 313.623L89.6035 317.495ZM96.6836 316.768L98.8564 312.891H99.5498L96.9814 317.324V320H96.3809V317.324L93.8174 312.891H94.5303L96.6836 316.768ZM104.53 318.252C104.53 317.858 104.392 317.547 104.115 317.319C103.839 317.088 103.332 316.87 102.597 316.665C101.861 316.457 101.324 316.23 100.985 315.986C100.504 315.641 100.263 315.189 100.263 314.629C100.263 314.085 100.486 313.644 100.932 313.306C101.381 312.964 101.954 312.793 102.65 312.793C103.122 312.793 103.544 312.884 103.915 313.066C104.289 313.249 104.579 313.503 104.784 313.828C104.989 314.154 105.092 314.517 105.092 314.917H104.486C104.486 314.432 104.32 314.043 103.988 313.75C103.656 313.454 103.21 313.306 102.65 313.306C102.107 313.306 101.674 313.428 101.352 313.672C101.029 313.913 100.868 314.229 100.868 314.619C100.868 314.98 101.013 315.275 101.303 315.503C101.592 315.731 102.056 315.933 102.694 316.108C103.332 316.281 103.816 316.462 104.145 316.65C104.473 316.836 104.721 317.059 104.887 317.319C105.053 317.58 105.136 317.887 105.136 318.242C105.136 318.802 104.911 319.251 104.462 319.59C104.016 319.928 103.427 320.098 102.694 320.098C102.193 320.098 101.732 320.008 101.312 319.829C100.896 319.65 100.578 319.399 100.36 319.077C100.146 318.755 100.038 318.385 100.038 317.969H100.639C100.639 318.47 100.826 318.866 101.2 319.155C101.575 319.445 102.073 319.59 102.694 319.59C103.248 319.59 103.692 319.468 104.027 319.224C104.363 318.979 104.53 318.656 104.53 318.252Z" fill="white"/>
<path d="M214.22 319.121L214.259 319.272L214.303 319.121L216.539 312.891H217.198L214.552 320H213.976L211.329 312.891H211.983L214.22 319.121ZM222.174 316.592H218.849V319.492H222.672V320H218.248V312.891H222.647V313.403H218.849V316.084H222.174V316.592ZM229.234 320H228.634L224.547 313.916V320H223.941V312.891H224.547L228.639 318.979V312.891H229.234V320ZM235.719 313.403H233.282V320H232.682V313.403H230.25V312.891H235.719V313.403ZM240.816 318.252C240.816 317.858 240.678 317.547 240.401 317.319C240.125 317.088 239.618 316.87 238.883 316.665C238.147 316.457 237.61 316.23 237.271 315.986C236.79 315.641 236.549 315.189 236.549 314.629C236.549 314.085 236.772 313.644 237.218 313.306C237.667 312.964 238.24 312.793 238.937 312.793C239.409 312.793 239.83 312.884 240.201 313.066C240.576 313.249 240.865 313.503 241.07 313.828C241.275 314.154 241.378 314.517 241.378 314.917H240.772C240.772 314.432 240.606 314.043 240.274 313.75C239.942 313.454 239.496 313.306 238.937 313.306C238.393 313.306 237.96 313.428 237.638 313.672C237.315 313.913 237.154 314.229 237.154 314.619C237.154 314.98 237.299 315.275 237.589 315.503C237.879 315.731 238.342 315.933 238.98 316.108C239.618 316.281 240.102 316.462 240.431 316.65C240.759 316.836 241.007 317.059 241.173 317.319C241.339 317.58 241.422 317.887 241.422 318.242C241.422 318.802 241.197 319.251 240.748 319.59C240.302 319.928 239.713 320.098 238.98 320.098C238.479 320.098 238.019 320.008 237.599 319.829C237.182 319.65 236.865 319.399 236.646 319.077C236.432 318.755 236.324 318.385 236.324 317.969H236.925C236.925 318.47 237.112 318.866 237.486 319.155C237.861 319.445 238.359 319.59 238.98 319.59C239.534 319.59 239.978 319.468 240.313 319.224C240.649 318.979 240.816 318.656 240.816 318.252Z" fill="white"/>
<path opacity="0.6" d="M116.189 61.0645L116.729 56.0469H122.075V57.4824H118.11L117.837 59.8613C118.297 59.597 118.817 59.4648 119.396 59.4648C120.343 59.4648 121.079 59.7679 121.604 60.374C122.132 60.9801 122.396 61.7959 122.396 62.8213C122.396 63.833 122.105 64.6396 121.521 65.2412C120.938 65.8382 120.138 66.1367 119.122 66.1367C118.211 66.1367 117.454 65.8792 116.853 65.3643C116.256 64.8447 115.932 64.1611 115.882 63.3135H117.488C117.552 63.7965 117.725 64.168 118.008 64.4277C118.29 64.6829 118.66 64.8105 119.115 64.8105C119.626 64.8105 120.022 64.6283 120.305 64.2637C120.592 63.8991 120.735 63.4023 120.735 62.7734C120.735 62.1673 120.578 61.6888 120.264 61.3379C119.949 60.9824 119.516 60.8047 118.965 60.8047C118.664 60.8047 118.409 60.8457 118.199 60.9277C117.99 61.0052 117.762 61.1602 117.516 61.3926L116.189 61.0645ZM128.2 66H126.546V58.0088L124.105 58.8428V57.4414L127.988 56.0127H128.2V66ZM131.591 57.9609C131.591 57.3594 131.785 56.8672 132.172 56.4844C132.559 56.097 133.067 55.9033 133.696 55.9033C134.334 55.9033 134.845 56.097 135.228 56.4844C135.615 56.8672 135.809 57.3708 135.809 57.9951V58.4873C135.809 59.0843 135.615 59.5742 135.228 59.957C134.845 60.3398 134.339 60.5312 133.71 60.5312C133.095 60.5312 132.587 60.3444 132.186 59.9707C131.789 59.5924 131.591 59.0843 131.591 58.4463V57.9609ZM132.753 58.4873C132.753 58.8018 132.84 59.057 133.013 59.2529C133.19 59.4443 133.423 59.54 133.71 59.54C133.993 59.54 134.22 59.4443 134.394 59.2529C134.567 59.057 134.653 58.7926 134.653 58.46V57.9609C134.653 57.6465 134.564 57.3913 134.387 57.1953C134.214 56.9993 133.983 56.9014 133.696 56.9014C133.409 56.9014 133.179 57.0016 133.006 57.2021C132.837 57.3981 132.753 57.6579 132.753 57.9814V58.4873ZM136.376 63.5596C136.376 62.9489 136.574 62.4544 136.971 62.0762C137.367 61.6979 137.873 61.5088 138.488 61.5088C139.108 61.5088 139.614 61.6979 140.006 62.0762C140.402 62.4544 140.601 62.9648 140.601 63.6074V64.0928C140.601 64.6852 140.409 65.1751 140.026 65.5625C139.648 65.9453 139.14 66.1367 138.502 66.1367C137.864 66.1367 137.349 65.9476 136.957 65.5693C136.57 65.1865 136.376 64.6829 136.376 64.0586V63.5596ZM137.538 64.0928C137.538 64.4027 137.627 64.6579 137.805 64.8584C137.987 65.0544 138.219 65.1523 138.502 65.1523C138.794 65.1523 139.021 65.0589 139.186 64.8721C139.354 64.6807 139.438 64.4141 139.438 64.0723V63.5596C139.438 63.2406 139.35 62.9854 139.172 62.7939C138.994 62.6025 138.766 62.5068 138.488 62.5068C138.206 62.5068 137.976 62.6025 137.798 62.7939C137.625 62.9854 137.538 63.2497 137.538 63.5869V64.0928ZM134.052 65.2549L133.197 64.7627L138.058 56.9834L138.912 57.4756L134.052 65.2549ZM147.519 66H145.796V56.0469H147.519V66ZM151.025 58.6035L151.073 59.458C151.62 58.7972 152.338 58.4668 153.227 58.4668C154.767 58.4668 155.551 59.3486 155.578 61.1123V66H153.917V61.208C153.917 60.7386 153.814 60.3923 153.609 60.1689C153.409 59.9411 153.078 59.8271 152.618 59.8271C151.948 59.8271 151.449 60.1302 151.121 60.7363V66H149.46V58.6035H151.025ZM160.315 64.8105C160.73 64.8105 161.074 64.6898 161.348 64.4482C161.621 64.2067 161.767 63.9082 161.785 63.5527H163.351C163.332 64.013 163.189 64.4437 162.92 64.8447C162.651 65.2412 162.286 65.5557 161.826 65.7881C161.366 66.0205 160.869 66.1367 160.336 66.1367C159.301 66.1367 158.481 65.8018 157.875 65.1318C157.269 64.4619 156.966 63.5368 156.966 62.3564V62.1855C156.966 61.0599 157.267 60.1598 157.868 59.4854C158.47 58.8063 159.29 58.4668 160.329 58.4668C161.209 58.4668 161.924 58.7243 162.476 59.2393C163.032 59.7497 163.323 60.4219 163.351 61.2559H161.785C161.767 60.832 161.621 60.4834 161.348 60.21C161.079 59.9365 160.735 59.7998 160.315 59.7998C159.778 59.7998 159.363 59.9958 159.071 60.3877C158.78 60.7751 158.632 61.3652 158.627 62.1582V62.4248C158.627 63.2269 158.771 63.8262 159.058 64.2227C159.349 64.6146 159.769 64.8105 160.315 64.8105ZM168.478 60.1211C168.259 60.0846 168.033 60.0664 167.801 60.0664C167.04 60.0664 166.527 60.3581 166.263 60.9414V66H164.602V58.6035H166.188L166.229 59.4307C166.63 58.7881 167.186 58.4668 167.896 58.4668C168.133 58.4668 168.329 58.4987 168.484 58.5625L168.478 60.1211ZM172.647 66.1367C171.595 66.1367 170.74 65.8063 170.084 65.1455C169.432 64.4801 169.106 63.596 169.106 62.4932V62.2881C169.106 61.5498 169.248 60.8913 169.53 60.3125C169.817 59.7292 170.218 59.2757 170.733 58.9521C171.248 58.6286 171.823 58.4668 172.456 58.4668C173.463 58.4668 174.24 58.7881 174.787 59.4307C175.339 60.0732 175.614 60.9824 175.614 62.1582V62.8281H170.781C170.831 63.4388 171.034 63.9219 171.39 64.2773C171.75 64.6328 172.201 64.8105 172.743 64.8105C173.504 64.8105 174.124 64.5029 174.603 63.8877L175.498 64.7422C175.202 65.1842 174.805 65.5283 174.309 65.7744C173.816 66.016 173.263 66.1367 172.647 66.1367ZM172.449 59.7998C171.993 59.7998 171.624 59.9593 171.342 60.2783C171.064 60.5973 170.886 61.0417 170.809 61.6113H173.974V61.4883C173.937 60.9323 173.789 60.513 173.529 60.2305C173.27 59.9434 172.91 59.7998 172.449 59.7998ZM181.329 66C181.256 65.8587 181.192 65.6286 181.138 65.3096C180.609 65.861 179.962 66.1367 179.196 66.1367C178.453 66.1367 177.847 65.9248 177.378 65.501C176.909 65.0771 176.674 64.5531 176.674 63.9287C176.674 63.1403 176.965 62.5365 177.549 62.1172C178.137 61.6934 178.975 61.4814 180.064 61.4814H181.083V60.9961C181.083 60.6133 180.976 60.3079 180.762 60.0801C180.548 59.8477 180.222 59.7314 179.784 59.7314C179.406 59.7314 179.096 59.8271 178.854 60.0186C178.613 60.2054 178.492 60.4447 178.492 60.7363H176.831C176.831 60.3307 176.965 59.9525 177.234 59.6016C177.503 59.2461 177.868 58.9681 178.328 58.7676C178.793 58.5671 179.31 58.4668 179.88 58.4668C180.746 58.4668 181.436 58.6855 181.951 59.123C182.466 59.556 182.73 60.1667 182.744 60.9551V64.291C182.744 64.9564 182.838 65.4873 183.024 65.8838V66H181.329ZM179.504 64.8037C179.832 64.8037 180.14 64.724 180.427 64.5645C180.718 64.4049 180.937 64.1908 181.083 63.9219V62.5273H180.188C179.572 62.5273 179.11 62.6344 178.8 62.8486C178.49 63.0628 178.335 63.3659 178.335 63.7578C178.335 64.0768 178.44 64.332 178.649 64.5234C178.864 64.7103 179.148 64.8037 179.504 64.8037ZM188.63 63.9902C188.63 63.694 188.507 63.4684 188.261 63.3135C188.019 63.1585 187.616 63.0218 187.051 62.9033C186.486 62.7848 186.014 62.6344 185.636 62.4521C184.806 62.0511 184.392 61.4701 184.392 60.709C184.392 60.071 184.66 59.5378 185.198 59.1094C185.736 58.681 186.42 58.4668 187.249 58.4668C188.133 58.4668 188.846 58.6855 189.389 59.123C189.936 59.5605 190.209 60.1279 190.209 60.8252H188.548C188.548 60.5062 188.429 60.2419 188.192 60.0322C187.955 59.818 187.641 59.7109 187.249 59.7109C186.884 59.7109 186.586 59.7952 186.354 59.9639C186.126 60.1325 186.012 60.3581 186.012 60.6406C186.012 60.8958 186.119 61.0941 186.333 61.2354C186.547 61.3766 186.98 61.5202 187.632 61.666C188.284 61.8073 188.794 61.9782 189.163 62.1787C189.537 62.3747 189.812 62.6117 189.99 62.8896C190.173 63.1676 190.264 63.5049 190.264 63.9014C190.264 64.5667 189.988 65.1068 189.437 65.5215C188.885 65.9316 188.163 66.1367 187.27 66.1367C186.663 66.1367 186.123 66.0273 185.649 65.8086C185.175 65.5898 184.806 65.2891 184.542 64.9062C184.278 64.5234 184.146 64.111 184.146 63.6689H185.759C185.782 64.0609 185.93 64.3639 186.203 64.5781C186.477 64.7878 186.839 64.8926 187.29 64.8926C187.728 64.8926 188.06 64.8105 188.288 64.6465C188.516 64.4779 188.63 64.2591 188.63 63.9902ZM194.974 66.1367C193.921 66.1367 193.066 65.8063 192.41 65.1455C191.758 64.4801 191.433 63.596 191.433 62.4932V62.2881C191.433 61.5498 191.574 60.8913 191.856 60.3125C192.144 59.7292 192.545 59.2757 193.06 58.9521C193.575 58.6286 194.149 58.4668 194.782 58.4668C195.789 58.4668 196.566 58.7881 197.113 59.4307C197.665 60.0732 197.94 60.9824 197.94 62.1582V62.8281H193.107C193.158 63.4388 193.36 63.9219 193.716 64.2773C194.076 64.6328 194.527 64.8105 195.069 64.8105C195.83 64.8105 196.45 64.5029 196.929 63.8877L197.824 64.7422C197.528 65.1842 197.132 65.5283 196.635 65.7744C196.143 66.016 195.589 66.1367 194.974 66.1367ZM194.775 59.7998C194.32 59.7998 193.951 59.9593 193.668 60.2783C193.39 60.5973 193.212 61.0417 193.135 61.6113H196.3V61.4883C196.263 60.9323 196.115 60.513 195.855 60.2305C195.596 59.9434 195.236 59.7998 194.775 59.7998Z" fill="#4D555B"/>
<path d="M123.606 42.7598C123.506 43.8216 123.114 44.651 122.431 45.248C121.747 45.8405 120.838 46.1367 119.703 46.1367C118.91 46.1367 118.211 45.9499 117.604 45.5762C117.003 45.1979 116.538 44.6624 116.21 43.9697C115.882 43.277 115.711 42.4727 115.697 41.5566V40.627C115.697 39.6882 115.864 38.861 116.196 38.1455C116.529 37.43 117.005 36.8786 117.625 36.4912C118.249 36.1038 118.969 35.9102 119.785 35.9102C120.883 35.9102 121.768 36.2087 122.438 36.8057C123.107 37.4027 123.497 38.2458 123.606 39.335H121.884C121.802 38.6195 121.592 38.1045 121.255 37.79C120.922 37.471 120.432 37.3115 119.785 37.3115C119.033 37.3115 118.454 37.5872 118.049 38.1387C117.648 38.6855 117.443 39.4899 117.434 40.5518V41.4336C117.434 42.5091 117.625 43.3294 118.008 43.8945C118.395 44.4596 118.96 44.7422 119.703 44.7422C120.382 44.7422 120.893 44.5895 121.234 44.2842C121.576 43.9788 121.793 43.4707 121.884 42.7598H123.606ZM133.061 46H131.338V41.5771H126.888V46H125.158V36.0469H126.888V40.1895H131.338V36.0469H133.061V46ZM140.806 43.6826H136.95L136.144 46H134.346L138.105 36.0469H139.657L143.424 46H141.619L140.806 43.6826ZM137.436 42.2881H140.32L138.878 38.1592L137.436 42.2881ZM150.93 37.4414H147.826V46H146.11V37.4414H143.034V36.0469H150.93V37.4414ZM162.913 42.7598C162.813 43.8216 162.421 44.651 161.737 45.248C161.054 45.8405 160.145 46.1367 159.01 46.1367C158.217 46.1367 157.517 45.9499 156.911 45.5762C156.31 45.1979 155.845 44.6624 155.517 43.9697C155.188 43.277 155.018 42.4727 155.004 41.5566V40.627C155.004 39.6882 155.17 38.861 155.503 38.1455C155.836 37.43 156.312 36.8786 156.932 36.4912C157.556 36.1038 158.276 35.9102 159.092 35.9102C160.19 35.9102 161.074 36.2087 161.744 36.8057C162.414 37.4027 162.804 38.2458 162.913 39.335H161.19C161.108 38.6195 160.899 38.1045 160.562 37.79C160.229 37.471 159.739 37.3115 159.092 37.3115C158.34 37.3115 157.761 37.5872 157.355 38.1387C156.954 38.6855 156.749 39.4899 156.74 40.5518V41.4336C156.74 42.5091 156.932 43.3294 157.314 43.8945C157.702 44.4596 158.267 44.7422 159.01 44.7422C159.689 44.7422 160.199 44.5895 160.541 44.2842C160.883 43.9788 161.099 43.4707 161.19 42.7598H162.913ZM172.408 41.2832C172.408 42.2585 172.24 43.1152 171.902 43.8535C171.565 44.5872 171.082 45.1523 170.453 45.5488C169.829 45.9408 169.109 46.1367 168.293 46.1367C167.486 46.1367 166.766 45.9408 166.133 45.5488C165.504 45.1523 165.016 44.5895 164.67 43.8604C164.328 43.1312 164.155 42.2904 164.15 41.3379V40.7773C164.15 39.8066 164.321 38.9499 164.663 38.207C165.009 37.4642 165.495 36.8968 166.119 36.5049C166.748 36.1084 167.468 35.9102 168.279 35.9102C169.09 35.9102 169.808 36.1061 170.433 36.498C171.062 36.8854 171.547 37.446 171.889 38.1797C172.23 38.9089 172.404 39.7588 172.408 40.7295V41.2832ZM170.679 40.7637C170.679 39.6608 170.469 38.8154 170.05 38.2275C169.635 37.6396 169.045 37.3457 168.279 37.3457C167.532 37.3457 166.946 37.6396 166.522 38.2275C166.103 38.8109 165.889 39.638 165.88 40.709V41.2832C165.88 42.377 166.092 43.2223 166.516 43.8193C166.944 44.4163 167.536 44.7148 168.293 44.7148C169.059 44.7148 169.646 44.4232 170.057 43.8398C170.471 43.2565 170.679 42.4043 170.679 41.2832V40.7637ZM182.026 46H180.297L175.86 38.9385V46H174.131V36.0469H175.86L180.311 43.1357V36.0469H182.026V46ZM189.272 43.4365C189.272 42.999 189.118 42.6618 188.808 42.4248C188.502 42.1878 187.949 41.9486 187.146 41.707C186.344 41.4655 185.706 41.1966 185.232 40.9004C184.326 40.3307 183.872 39.5879 183.872 38.6719C183.872 37.8698 184.198 37.209 184.85 36.6895C185.506 36.1699 186.356 35.9102 187.399 35.9102C188.092 35.9102 188.71 36.0378 189.252 36.293C189.794 36.5482 190.22 36.9128 190.53 37.3867C190.84 37.8561 190.995 38.3779 190.995 38.9521H189.272C189.272 38.4326 189.108 38.027 188.78 37.7354C188.457 37.4391 187.992 37.291 187.386 37.291C186.821 37.291 186.381 37.4118 186.066 37.6533C185.757 37.8949 185.602 38.2321 185.602 38.665C185.602 39.0296 185.77 39.335 186.107 39.5811C186.445 39.8226 187.001 40.0596 187.775 40.292C188.55 40.5199 189.172 40.7819 189.642 41.0781C190.111 41.3698 190.455 41.707 190.674 42.0898C190.893 42.4681 191.002 42.9124 191.002 43.4229C191.002 44.2523 190.683 44.9131 190.045 45.4053C189.411 45.8929 188.55 46.1367 187.461 46.1367C186.741 46.1367 186.078 46.0046 185.472 45.7402C184.87 45.4714 184.401 45.1022 184.063 44.6328C183.731 44.1634 183.564 43.6165 183.564 42.9922H185.294C185.294 43.5573 185.481 43.9948 185.854 44.3047C186.228 44.6146 186.764 44.7695 187.461 44.7695C188.062 44.7695 188.514 44.6488 188.814 44.4072C189.12 44.1611 189.272 43.8376 189.272 43.4365ZM199.8 36.0469V42.6982C199.8 43.7555 199.46 44.5941 198.781 45.2139C198.107 45.8291 197.207 46.1367 196.081 46.1367C194.942 46.1367 194.037 45.8337 193.367 45.2275C192.697 44.6169 192.362 43.7715 192.362 42.6914V36.0469H194.085V42.7051C194.085 43.3704 194.254 43.8786 194.591 44.2295C194.928 44.5804 195.425 44.7559 196.081 44.7559C197.412 44.7559 198.077 44.054 198.077 42.6504V36.0469H199.8ZM203.382 44.6191H207.9V46H201.652V36.0469H203.382V44.6191ZM215.01 37.4414H211.906V46H210.19V37.4414H207.114V36.0469H215.01V37.4414Z" fill="#4D555B"/>
<path d="M51.8555 56.4043H55.4062V59.0586H51.8555V65H48.5859V59.0586H36.9316V57.1426L48.3926 39.4062H51.8555V56.4043ZM40.623 56.4043H48.5859V43.8535L48.1992 44.5566L40.623 56.4043ZM59.8359 52.168L61.1367 39.4062H74.25V42.4121H63.8965L63.123 49.3906C64.377 48.6523 65.8008 48.2832 67.3945 48.2832C69.7266 48.2832 71.5781 49.0566 72.9492 50.6035C74.3203 52.1387 75.0059 54.2188 75.0059 56.8438C75.0059 59.4805 74.291 61.5605 72.8613 63.084C71.4434 64.5957 69.457 65.3516 66.9023 65.3516C64.6406 65.3516 62.7949 64.7246 61.3652 63.4707C59.9355 62.2168 59.1211 60.4824 58.9219 58.2676H61.998C62.1973 59.7324 62.7188 60.8398 63.5625 61.5898C64.4062 62.3281 65.5195 62.6973 66.9023 62.6973C68.4141 62.6973 69.5977 62.1816 70.4531 61.1504C71.3203 60.1191 71.7539 58.6953 71.7539 56.8789C71.7539 55.168 71.2852 53.7969 70.3477 52.7656C69.4219 51.7227 68.1855 51.2012 66.6387 51.2012C65.2207 51.2012 64.1074 51.5117 63.2988 52.1328L62.4375 52.8359L59.8359 52.168ZM92.2852 56.4043H95.8359V59.0586H92.2852V65H89.0156V59.0586H77.3613V57.1426L88.8223 39.4062H92.2852V56.4043ZM81.0527 56.4043H89.0156V43.8535L88.6289 44.5566L81.0527 56.4043Z" fill="url(#paint0_linear)"/>
<path opacity="0.6" d="M399.189 61.0645L399.729 56.0469H405.075V57.4824H401.11L400.837 59.8613C401.297 59.597 401.817 59.4648 402.396 59.4648C403.343 59.4648 404.079 59.7679 404.604 60.374C405.132 60.9801 405.396 61.7959 405.396 62.8213C405.396 63.833 405.105 64.6396 404.521 65.2412C403.938 65.8382 403.138 66.1367 402.122 66.1367C401.211 66.1367 400.454 65.8792 399.853 65.3643C399.256 64.8447 398.932 64.1611 398.882 63.3135H400.488C400.552 63.7965 400.725 64.168 401.008 64.4277C401.29 64.6829 401.66 64.8105 402.115 64.8105C402.626 64.8105 403.022 64.6283 403.305 64.2637C403.592 63.8991 403.735 63.4023 403.735 62.7734C403.735 62.1673 403.578 61.6888 403.264 61.3379C402.949 60.9824 402.516 60.8047 401.965 60.8047C401.664 60.8047 401.409 60.8457 401.199 60.9277C400.99 61.0052 400.762 61.1602 400.516 61.3926L399.189 61.0645ZM411.2 66H409.546V58.0088L407.105 58.8428V57.4414L410.988 56.0127H411.2V66ZM414.591 57.9609C414.591 57.3594 414.785 56.8672 415.172 56.4844C415.559 56.097 416.067 55.9033 416.696 55.9033C417.334 55.9033 417.845 56.097 418.228 56.4844C418.615 56.8672 418.809 57.3708 418.809 57.9951V58.4873C418.809 59.0843 418.615 59.5742 418.228 59.957C417.845 60.3398 417.339 60.5312 416.71 60.5312C416.095 60.5312 415.587 60.3444 415.186 59.9707C414.789 59.5924 414.591 59.0843 414.591 58.4463V57.9609ZM415.753 58.4873C415.753 58.8018 415.84 59.057 416.013 59.2529C416.19 59.4443 416.423 59.54 416.71 59.54C416.993 59.54 417.22 59.4443 417.394 59.2529C417.567 59.057 417.653 58.7926 417.653 58.46V57.9609C417.653 57.6465 417.564 57.3913 417.387 57.1953C417.214 56.9993 416.983 56.9014 416.696 56.9014C416.409 56.9014 416.179 57.0016 416.006 57.2021C415.837 57.3981 415.753 57.6579 415.753 57.9814V58.4873ZM419.376 63.5596C419.376 62.9489 419.574 62.4544 419.971 62.0762C420.367 61.6979 420.873 61.5088 421.488 61.5088C422.108 61.5088 422.614 61.6979 423.006 62.0762C423.402 62.4544 423.601 62.9648 423.601 63.6074V64.0928C423.601 64.6852 423.409 65.1751 423.026 65.5625C422.648 65.9453 422.14 66.1367 421.502 66.1367C420.864 66.1367 420.349 65.9476 419.957 65.5693C419.57 65.1865 419.376 64.6829 419.376 64.0586V63.5596ZM420.538 64.0928C420.538 64.4027 420.627 64.6579 420.805 64.8584C420.987 65.0544 421.219 65.1523 421.502 65.1523C421.794 65.1523 422.021 65.0589 422.186 64.8721C422.354 64.6807 422.438 64.4141 422.438 64.0723V63.5596C422.438 63.2406 422.35 62.9854 422.172 62.7939C421.994 62.6025 421.766 62.5068 421.488 62.5068C421.206 62.5068 420.976 62.6025 420.798 62.7939C420.625 62.9854 420.538 63.2497 420.538 63.5869V64.0928ZM417.052 65.2549L416.197 64.7627L421.058 56.9834L421.912 57.4756L417.052 65.2549ZM430.519 66H428.796V56.0469H430.519V66ZM434.025 58.6035L434.073 59.458C434.62 58.7972 435.338 58.4668 436.227 58.4668C437.767 58.4668 438.551 59.3486 438.578 61.1123V66H436.917V61.208C436.917 60.7386 436.814 60.3923 436.609 60.1689C436.409 59.9411 436.078 59.8271 435.618 59.8271C434.948 59.8271 434.449 60.1302 434.121 60.7363V66H432.46V58.6035H434.025ZM443.315 64.8105C443.73 64.8105 444.074 64.6898 444.348 64.4482C444.621 64.2067 444.767 63.9082 444.785 63.5527H446.351C446.332 64.013 446.189 64.4437 445.92 64.8447C445.651 65.2412 445.286 65.5557 444.826 65.7881C444.366 66.0205 443.869 66.1367 443.336 66.1367C442.301 66.1367 441.481 65.8018 440.875 65.1318C440.269 64.4619 439.966 63.5368 439.966 62.3564V62.1855C439.966 61.0599 440.267 60.1598 440.868 59.4854C441.47 58.8063 442.29 58.4668 443.329 58.4668C444.209 58.4668 444.924 58.7243 445.476 59.2393C446.032 59.7497 446.323 60.4219 446.351 61.2559H444.785C444.767 60.832 444.621 60.4834 444.348 60.21C444.079 59.9365 443.735 59.7998 443.315 59.7998C442.778 59.7998 442.363 59.9958 442.071 60.3877C441.78 60.7751 441.632 61.3652 441.627 62.1582V62.4248C441.627 63.2269 441.771 63.8262 442.058 64.2227C442.349 64.6146 442.769 64.8105 443.315 64.8105ZM451.478 60.1211C451.259 60.0846 451.033 60.0664 450.801 60.0664C450.04 60.0664 449.527 60.3581 449.263 60.9414V66H447.602V58.6035H449.188L449.229 59.4307C449.63 58.7881 450.186 58.4668 450.896 58.4668C451.133 58.4668 451.329 58.4987 451.484 58.5625L451.478 60.1211ZM455.647 66.1367C454.595 66.1367 453.74 65.8063 453.084 65.1455C452.432 64.4801 452.106 63.596 452.106 62.4932V62.2881C452.106 61.5498 452.248 60.8913 452.53 60.3125C452.817 59.7292 453.218 59.2757 453.733 58.9521C454.248 58.6286 454.823 58.4668 455.456 58.4668C456.463 58.4668 457.24 58.7881 457.787 59.4307C458.339 60.0732 458.614 60.9824 458.614 62.1582V62.8281H453.781C453.831 63.4388 454.034 63.9219 454.39 64.2773C454.75 64.6328 455.201 64.8105 455.743 64.8105C456.504 64.8105 457.124 64.5029 457.603 63.8877L458.498 64.7422C458.202 65.1842 457.805 65.5283 457.309 65.7744C456.816 66.016 456.263 66.1367 455.647 66.1367ZM455.449 59.7998C454.993 59.7998 454.624 59.9593 454.342 60.2783C454.064 60.5973 453.886 61.0417 453.809 61.6113H456.974V61.4883C456.937 60.9323 456.789 60.513 456.529 60.2305C456.27 59.9434 455.91 59.7998 455.449 59.7998ZM464.329 66C464.256 65.8587 464.192 65.6286 464.138 65.3096C463.609 65.861 462.962 66.1367 462.196 66.1367C461.453 66.1367 460.847 65.9248 460.378 65.501C459.909 65.0771 459.674 64.5531 459.674 63.9287C459.674 63.1403 459.965 62.5365 460.549 62.1172C461.137 61.6934 461.975 61.4814 463.064 61.4814H464.083V60.9961C464.083 60.6133 463.976 60.3079 463.762 60.0801C463.548 59.8477 463.222 59.7314 462.784 59.7314C462.406 59.7314 462.096 59.8271 461.854 60.0186C461.613 60.2054 461.492 60.4447 461.492 60.7363H459.831C459.831 60.3307 459.965 59.9525 460.234 59.6016C460.503 59.2461 460.868 58.9681 461.328 58.7676C461.793 58.5671 462.31 58.4668 462.88 58.4668C463.746 58.4668 464.436 58.6855 464.951 59.123C465.466 59.556 465.73 60.1667 465.744 60.9551V64.291C465.744 64.9564 465.838 65.4873 466.024 65.8838V66H464.329ZM462.504 64.8037C462.832 64.8037 463.14 64.724 463.427 64.5645C463.718 64.4049 463.937 64.1908 464.083 63.9219V62.5273H463.188C462.572 62.5273 462.11 62.6344 461.8 62.8486C461.49 63.0628 461.335 63.3659 461.335 63.7578C461.335 64.0768 461.44 64.332 461.649 64.5234C461.864 64.7103 462.148 64.8037 462.504 64.8037ZM471.63 63.9902C471.63 63.694 471.507 63.4684 471.261 63.3135C471.019 63.1585 470.616 63.0218 470.051 62.9033C469.486 62.7848 469.014 62.6344 468.636 62.4521C467.806 62.0511 467.392 61.4701 467.392 60.709C467.392 60.071 467.66 59.5378 468.198 59.1094C468.736 58.681 469.42 58.4668 470.249 58.4668C471.133 58.4668 471.846 58.6855 472.389 59.123C472.936 59.5605 473.209 60.1279 473.209 60.8252H471.548C471.548 60.5062 471.429 60.2419 471.192 60.0322C470.955 59.818 470.641 59.7109 470.249 59.7109C469.884 59.7109 469.586 59.7952 469.354 59.9639C469.126 60.1325 469.012 60.3581 469.012 60.6406C469.012 60.8958 469.119 61.0941 469.333 61.2354C469.547 61.3766 469.98 61.5202 470.632 61.666C471.284 61.8073 471.794 61.9782 472.163 62.1787C472.537 62.3747 472.812 62.6117 472.99 62.8896C473.173 63.1676 473.264 63.5049 473.264 63.9014C473.264 64.5667 472.988 65.1068 472.437 65.5215C471.885 65.9316 471.163 66.1367 470.27 66.1367C469.663 66.1367 469.123 66.0273 468.649 65.8086C468.175 65.5898 467.806 65.2891 467.542 64.9062C467.278 64.5234 467.146 64.111 467.146 63.6689H468.759C468.782 64.0609 468.93 64.3639 469.203 64.5781C469.477 64.7878 469.839 64.8926 470.29 64.8926C470.728 64.8926 471.06 64.8105 471.288 64.6465C471.516 64.4779 471.63 64.2591 471.63 63.9902ZM477.974 66.1367C476.921 66.1367 476.066 65.8063 475.41 65.1455C474.758 64.4801 474.433 63.596 474.433 62.4932V62.2881C474.433 61.5498 474.574 60.8913 474.856 60.3125C475.144 59.7292 475.545 59.2757 476.06 58.9521C476.575 58.6286 477.149 58.4668 477.782 58.4668C478.789 58.4668 479.566 58.7881 480.113 59.4307C480.665 60.0732 480.94 60.9824 480.94 62.1582V62.8281H476.107C476.158 63.4388 476.36 63.9219 476.716 64.2773C477.076 64.6328 477.527 64.8105 478.069 64.8105C478.83 64.8105 479.45 64.5029 479.929 63.8877L480.824 64.7422C480.528 65.1842 480.132 65.5283 479.635 65.7744C479.143 66.016 478.589 66.1367 477.974 66.1367ZM477.775 59.7998C477.32 59.7998 476.951 59.9593 476.668 60.2783C476.39 60.5973 476.212 61.0417 476.135 61.6113H479.3V61.4883C479.263 60.9323 479.115 60.513 478.855 60.2305C478.596 59.9434 478.236 59.7998 477.775 59.7998Z" fill="#4D555B"/>
<path opacity="0.6" d="M58.666 363.265H59.6777C60.1882 363.26 60.5915 363.128 60.8877 362.868C61.1885 362.608 61.3389 362.232 61.3389 361.74C61.3389 361.266 61.2135 360.899 60.9629 360.64C60.7168 360.375 60.3385 360.243 59.8281 360.243C59.3815 360.243 59.0146 360.373 58.7275 360.633C58.4404 360.888 58.2969 361.223 58.2969 361.638H56.6357C56.6357 361.127 56.7702 360.662 57.0391 360.243C57.3125 359.824 57.6908 359.498 58.1738 359.266C58.6615 359.029 59.2061 358.91 59.8076 358.91C60.8011 358.91 61.5804 359.161 62.1455 359.662C62.7152 360.159 63 360.852 63 361.74C63 362.187 62.8564 362.608 62.5693 363.005C62.2868 363.397 61.9199 363.693 61.4688 363.894C62.0156 364.08 62.4303 364.374 62.7129 364.775C63 365.176 63.1436 365.655 63.1436 366.211C63.1436 367.104 62.8359 367.815 62.2207 368.344C61.61 368.872 60.8057 369.137 59.8076 369.137C58.8506 369.137 58.0667 368.882 57.4561 368.371C56.8454 367.861 56.54 367.182 56.54 366.334H58.2012C58.2012 366.771 58.347 367.127 58.6387 367.4C58.9349 367.674 59.3314 367.811 59.8281 367.811C60.3431 367.811 60.7487 367.674 61.0449 367.4C61.3411 367.127 61.4893 366.73 61.4893 366.211C61.4893 365.687 61.3343 365.284 61.0244 365.001C60.7145 364.718 60.2542 364.577 59.6436 364.577H58.666V363.265ZM65.2764 369.854H63.9707L67.8877 359.047H69.1934L65.2764 369.854ZM76.5078 361.672C76.5078 362.16 76.3825 362.595 76.1318 362.978C75.8812 363.356 75.5394 363.654 75.1064 363.873C75.626 364.115 76.0247 364.445 76.3027 364.864C76.5853 365.284 76.7266 365.757 76.7266 366.286C76.7266 367.161 76.4303 367.856 75.8379 368.371C75.2454 368.882 74.457 369.137 73.4727 369.137C72.4837 369.137 71.6908 368.879 71.0938 368.364C70.5013 367.849 70.2051 367.157 70.2051 366.286C70.2051 365.753 70.3464 365.274 70.6289 364.851C70.9115 364.427 71.3079 364.101 71.8184 363.873C71.39 363.654 71.0505 363.356 70.7998 362.978C70.5537 362.595 70.4307 362.16 70.4307 361.672C70.4307 360.824 70.7041 360.152 71.251 359.655C71.7979 359.159 72.5361 358.91 73.4658 358.91C74.4001 358.91 75.1406 359.159 75.6875 359.655C76.2344 360.152 76.5078 360.824 76.5078 361.672ZM75.0654 366.204C75.0654 365.712 74.9173 365.315 74.6211 365.015C74.3294 364.709 73.9421 364.557 73.459 364.557C72.9759 364.557 72.5885 364.707 72.2969 365.008C72.0098 365.309 71.8662 365.707 71.8662 366.204C71.8662 366.692 72.0075 367.081 72.29 367.373C72.5771 367.665 72.9714 367.811 73.4727 367.811C73.974 367.811 74.3636 367.669 74.6416 367.387C74.9242 367.104 75.0654 366.71 75.0654 366.204ZM74.8535 361.733C74.8535 361.3 74.7282 360.945 74.4775 360.667C74.2269 360.384 73.8896 360.243 73.4658 360.243C73.042 360.243 72.707 360.378 72.4609 360.646C72.2148 360.911 72.0918 361.273 72.0918 361.733C72.0918 362.189 72.2148 362.551 72.4609 362.82C72.7116 363.089 73.0488 363.224 73.4727 363.224C73.8965 363.224 74.2314 363.089 74.4775 362.82C74.7282 362.551 74.8535 362.189 74.8535 361.733Z" fill="#4D555B"/>
<path opacity="0.6" d="M162.364 365.452H163.602V366.785H162.364V369H160.703V366.785H156.403L156.355 365.773L160.648 359.047H162.364V365.452ZM158.099 365.452H160.703V361.296L160.58 361.515L158.099 365.452ZM165.276 369.854H163.971L167.888 359.047H169.193L165.276 369.854ZM176.508 361.672C176.508 362.16 176.382 362.595 176.132 362.978C175.881 363.356 175.539 363.654 175.106 363.873C175.626 364.115 176.025 364.445 176.303 364.864C176.585 365.284 176.727 365.757 176.727 366.286C176.727 367.161 176.43 367.856 175.838 368.371C175.245 368.882 174.457 369.137 173.473 369.137C172.484 369.137 171.691 368.879 171.094 368.364C170.501 367.849 170.205 367.157 170.205 366.286C170.205 365.753 170.346 365.274 170.629 364.851C170.911 364.427 171.308 364.101 171.818 363.873C171.39 363.654 171.05 363.356 170.8 362.978C170.554 362.595 170.431 362.16 170.431 361.672C170.431 360.824 170.704 360.152 171.251 359.655C171.798 359.159 172.536 358.91 173.466 358.91C174.4 358.91 175.141 359.159 175.688 359.655C176.234 360.152 176.508 360.824 176.508 361.672ZM175.065 366.204C175.065 365.712 174.917 365.315 174.621 365.015C174.329 364.709 173.942 364.557 173.459 364.557C172.976 364.557 172.589 364.707 172.297 365.008C172.01 365.309 171.866 365.707 171.866 366.204C171.866 366.692 172.007 367.081 172.29 367.373C172.577 367.665 172.971 367.811 173.473 367.811C173.974 367.811 174.364 367.669 174.642 367.387C174.924 367.104 175.065 366.71 175.065 366.204ZM174.854 361.733C174.854 361.3 174.728 360.945 174.478 360.667C174.227 360.384 173.89 360.243 173.466 360.243C173.042 360.243 172.707 360.378 172.461 360.646C172.215 360.911 172.092 361.273 172.092 361.733C172.092 362.189 172.215 362.551 172.461 362.82C172.712 363.089 173.049 363.224 173.473 363.224C173.896 363.224 174.231 363.089 174.478 362.82C174.728 362.551 174.854 362.189 174.854 361.733Z" fill="#4D555B"/>
<path opacity="0.6" d="M258.189 364.064L258.729 359.047H264.075V360.482H260.11L259.837 362.861C260.297 362.597 260.817 362.465 261.396 362.465C262.343 362.465 263.079 362.768 263.604 363.374C264.132 363.98 264.396 364.796 264.396 365.821C264.396 366.833 264.105 367.64 263.521 368.241C262.938 368.838 262.138 369.137 261.122 369.137C260.211 369.137 259.454 368.879 258.853 368.364C258.256 367.845 257.932 367.161 257.882 366.313H259.488C259.552 366.797 259.725 367.168 260.008 367.428C260.29 367.683 260.66 367.811 261.115 367.811C261.626 367.811 262.022 367.628 262.305 367.264C262.592 366.899 262.735 366.402 262.735 365.773C262.735 365.167 262.578 364.689 262.264 364.338C261.949 363.982 261.516 363.805 260.965 363.805C260.664 363.805 260.409 363.846 260.199 363.928C259.99 364.005 259.762 364.16 259.516 364.393L258.189 364.064ZM266.276 369.854H264.971L268.888 359.047H270.193L266.276 369.854ZM277.508 361.672C277.508 362.16 277.382 362.595 277.132 362.978C276.881 363.356 276.539 363.654 276.106 363.873C276.626 364.115 277.025 364.445 277.303 364.864C277.585 365.284 277.727 365.757 277.727 366.286C277.727 367.161 277.43 367.856 276.838 368.371C276.245 368.882 275.457 369.137 274.473 369.137C273.484 369.137 272.691 368.879 272.094 368.364C271.501 367.849 271.205 367.157 271.205 366.286C271.205 365.753 271.346 365.274 271.629 364.851C271.911 364.427 272.308 364.101 272.818 363.873C272.39 363.654 272.05 363.356 271.8 362.978C271.554 362.595 271.431 362.16 271.431 361.672C271.431 360.824 271.704 360.152 272.251 359.655C272.798 359.159 273.536 358.91 274.466 358.91C275.4 358.91 276.141 359.159 276.688 359.655C277.234 360.152 277.508 360.824 277.508 361.672ZM276.065 366.204C276.065 365.712 275.917 365.315 275.621 365.015C275.329 364.709 274.942 364.557 274.459 364.557C273.976 364.557 273.589 364.707 273.297 365.008C273.01 365.309 272.866 365.707 272.866 366.204C272.866 366.692 273.007 367.081 273.29 367.373C273.577 367.665 273.971 367.811 274.473 367.811C274.974 367.811 275.364 367.669 275.642 367.387C275.924 367.104 276.065 366.71 276.065 366.204ZM275.854 361.733C275.854 361.3 275.728 360.945 275.478 360.667C275.227 360.384 274.89 360.243 274.466 360.243C274.042 360.243 273.707 360.378 273.461 360.646C273.215 360.911 273.092 361.273 273.092 361.733C273.092 362.189 273.215 362.551 273.461 362.82C273.712 363.089 274.049 363.224 274.473 363.224C274.896 363.224 275.231 363.089 275.478 362.82C275.728 362.551 275.854 362.189 275.854 361.733Z" fill="#4D555B"/>
<path opacity="0.6" d="M362.913 358.999V360.373H362.708C361.778 360.387 361.035 360.642 360.479 361.139C359.924 361.635 359.593 362.34 359.488 363.251C360.021 362.69 360.703 362.41 361.532 362.41C362.412 362.41 363.104 362.72 363.61 363.34C364.121 363.96 364.376 364.759 364.376 365.739C364.376 366.751 364.077 367.571 363.48 368.2C362.888 368.825 362.109 369.137 361.143 369.137C360.149 369.137 359.342 368.77 358.723 368.036C358.107 367.302 357.8 366.341 357.8 365.151V364.584C357.8 362.839 358.224 361.471 359.071 360.482C359.924 359.493 361.147 358.999 362.742 358.999H362.913ZM361.129 363.75C360.764 363.75 360.429 363.853 360.124 364.058C359.823 364.263 359.602 364.536 359.461 364.878V365.384C359.461 366.122 359.616 366.71 359.926 367.147C360.236 367.58 360.637 367.797 361.129 367.797C361.621 367.797 362.011 367.612 362.298 367.243C362.585 366.874 362.729 366.389 362.729 365.787C362.729 365.186 362.583 364.696 362.291 364.317C361.999 363.939 361.612 363.75 361.129 363.75ZM366.276 369.854H364.971L368.888 359.047H370.193L366.276 369.854ZM377.508 361.672C377.508 362.16 377.382 362.595 377.132 362.978C376.881 363.356 376.539 363.654 376.106 363.873C376.626 364.115 377.025 364.445 377.303 364.864C377.585 365.284 377.727 365.757 377.727 366.286C377.727 367.161 377.43 367.856 376.838 368.371C376.245 368.882 375.457 369.137 374.473 369.137C373.484 369.137 372.691 368.879 372.094 368.364C371.501 367.849 371.205 367.157 371.205 366.286C371.205 365.753 371.346 365.274 371.629 364.851C371.911 364.427 372.308 364.101 372.818 363.873C372.39 363.654 372.05 363.356 371.8 362.978C371.554 362.595 371.431 362.16 371.431 361.672C371.431 360.824 371.704 360.152 372.251 359.655C372.798 359.159 373.536 358.91 374.466 358.91C375.4 358.91 376.141 359.159 376.688 359.655C377.234 360.152 377.508 360.824 377.508 361.672ZM376.065 366.204C376.065 365.712 375.917 365.315 375.621 365.015C375.329 364.709 374.942 364.557 374.459 364.557C373.976 364.557 373.589 364.707 373.297 365.008C373.01 365.309 372.866 365.707 372.866 366.204C372.866 366.692 373.007 367.081 373.29 367.373C373.577 367.665 373.971 367.811 374.473 367.811C374.974 367.811 375.364 367.669 375.642 367.387C375.924 367.104 376.065 366.71 376.065 366.204ZM375.854 361.733C375.854 361.3 375.728 360.945 375.478 360.667C375.227 360.384 374.89 360.243 374.466 360.243C374.042 360.243 373.707 360.378 373.461 360.646C373.215 360.911 373.092 361.273 373.092 361.733C373.092 362.189 373.215 362.551 373.461 362.82C373.712 363.089 374.049 363.224 374.473 363.224C374.896 363.224 375.231 363.089 375.478 362.82C375.728 362.551 375.854 362.189 375.854 361.733Z" fill="#4D555B"/>
<path opacity="0.6" d="M465.369 359.97L461.391 369H459.647L463.619 360.38H458.472V359.047H465.369V359.97ZM467.276 369.854H465.971L469.888 359.047H471.193L467.276 369.854ZM476.949 364.837C476.393 365.425 475.744 365.719 475.001 365.719C474.126 365.719 473.429 365.413 472.909 364.803C472.39 364.188 472.13 363.381 472.13 362.383C472.13 361.727 472.262 361.132 472.526 360.599C472.791 360.065 473.167 359.651 473.654 359.354C474.142 359.058 474.707 358.91 475.35 358.91C476.352 358.91 477.147 359.284 477.735 360.031C478.323 360.779 478.617 361.779 478.617 363.032V363.497C478.617 365.293 478.212 366.662 477.4 367.605C476.589 368.549 475.379 369.027 473.771 369.041H473.572V367.667H473.812C474.791 367.653 475.543 367.419 476.067 366.963C476.591 366.503 476.885 365.794 476.949 364.837ZM475.35 364.42C475.682 364.42 475.994 364.324 476.286 364.133C476.578 363.941 476.803 363.677 476.963 363.34V362.69C476.963 361.957 476.812 361.367 476.512 360.92C476.211 360.473 475.821 360.25 475.343 360.25C474.864 360.25 474.481 360.448 474.194 360.845C473.912 361.237 473.771 361.733 473.771 362.335C473.771 362.959 473.914 363.463 474.201 363.846C474.488 364.229 474.871 364.42 475.35 364.42Z" fill="#4D555B"/>
<path opacity="0.6" d="M565.014 361.672C565.014 362.16 564.888 362.595 564.638 362.978C564.387 363.356 564.045 363.654 563.612 363.873C564.132 364.115 564.531 364.445 564.809 364.864C565.091 365.284 565.232 365.757 565.232 366.286C565.232 367.161 564.936 367.856 564.344 368.371C563.751 368.882 562.963 369.137 561.979 369.137C560.99 369.137 560.197 368.879 559.6 368.364C559.007 367.849 558.711 367.157 558.711 366.286C558.711 365.753 558.852 365.274 559.135 364.851C559.417 364.427 559.814 364.101 560.324 363.873C559.896 363.654 559.556 363.356 559.306 362.978C559.06 362.595 558.937 362.16 558.937 361.672C558.937 360.824 559.21 360.152 559.757 359.655C560.304 359.159 561.042 358.91 561.972 358.91C562.906 358.91 563.646 359.159 564.193 359.655C564.74 360.152 565.014 360.824 565.014 361.672ZM563.571 366.204C563.571 365.712 563.423 365.315 563.127 365.015C562.835 364.709 562.448 364.557 561.965 364.557C561.482 364.557 561.094 364.707 560.803 365.008C560.516 365.309 560.372 365.707 560.372 366.204C560.372 366.692 560.513 367.081 560.796 367.373C561.083 367.665 561.477 367.811 561.979 367.811C562.48 367.811 562.869 367.669 563.147 367.387C563.43 367.104 563.571 366.71 563.571 366.204ZM563.359 361.733C563.359 361.3 563.234 360.945 562.983 360.667C562.733 360.384 562.396 360.243 561.972 360.243C561.548 360.243 561.213 360.378 560.967 360.646C560.721 360.911 560.598 361.273 560.598 361.733C560.598 362.189 560.721 362.551 560.967 362.82C561.217 363.089 561.555 363.224 561.979 363.224C562.402 363.224 562.737 363.089 562.983 362.82C563.234 362.551 563.359 362.189 563.359 361.733ZM567.276 369.854H565.971L569.888 359.047H571.193L567.276 369.854ZM576.949 364.837C576.393 365.425 575.744 365.719 575.001 365.719C574.126 365.719 573.429 365.413 572.909 364.803C572.39 364.188 572.13 363.381 572.13 362.383C572.13 361.727 572.262 361.132 572.526 360.599C572.791 360.065 573.167 359.651 573.654 359.354C574.142 359.058 574.707 358.91 575.35 358.91C576.352 358.91 577.147 359.284 577.735 360.031C578.323 360.779 578.617 361.779 578.617 363.032V363.497C578.617 365.293 578.212 366.662 577.4 367.605C576.589 368.549 575.379 369.027 573.771 369.041H573.572V367.667H573.812C574.791 367.653 575.543 367.419 576.067 366.963C576.591 366.503 576.885 365.794 576.949 364.837ZM575.35 364.42C575.682 364.42 575.994 364.324 576.286 364.133C576.578 363.941 576.803 363.677 576.963 363.34V362.69C576.963 361.957 576.812 361.367 576.512 360.92C576.211 360.473 575.821 360.25 575.343 360.25C574.864 360.25 574.481 360.448 574.194 360.845C573.912 361.237 573.771 361.733 573.771 362.335C573.771 362.959 573.914 363.463 574.201 363.846C574.488 364.229 574.871 364.42 575.35 364.42Z" fill="#4D555B"/>
<path opacity="0.6" d="M668.369 359.97L664.391 369H662.647L666.619 360.38H661.472V359.047H668.369V359.97ZM670.276 369.854H668.971L672.888 359.047H674.193L670.276 369.854ZM679.949 364.837C679.393 365.425 678.744 365.719 678.001 365.719C677.126 365.719 676.429 365.413 675.909 364.803C675.39 364.188 675.13 363.381 675.13 362.383C675.13 361.727 675.262 361.132 675.526 360.599C675.791 360.065 676.167 359.651 676.654 359.354C677.142 359.058 677.707 358.91 678.35 358.91C679.352 358.91 680.147 359.284 680.735 360.031C681.323 360.779 681.617 361.779 681.617 363.032V363.497C681.617 365.293 681.212 366.662 680.4 367.605C679.589 368.549 678.379 369.027 676.771 369.041H676.572V367.667H676.812C677.791 367.653 678.543 367.419 679.067 366.963C679.591 366.503 679.885 365.794 679.949 364.837ZM678.35 364.42C678.682 364.42 678.994 364.324 679.286 364.133C679.578 363.941 679.803 363.677 679.963 363.34V362.69C679.963 361.957 679.812 361.367 679.512 360.92C679.211 360.473 678.821 360.25 678.343 360.25C677.864 360.25 677.481 360.448 677.194 360.845C676.912 361.237 676.771 361.733 676.771 362.335C676.771 362.959 676.914 363.463 677.201 363.846C677.488 364.229 677.871 364.42 678.35 364.42Z" fill="#4D555B"/>
<path opacity="0.6" d="M761.014 361.672C761.014 362.16 760.888 362.595 760.638 362.978C760.387 363.356 760.045 363.654 759.612 363.873C760.132 364.115 760.531 364.445 760.809 364.864C761.091 365.284 761.232 365.757 761.232 366.286C761.232 367.161 760.936 367.856 760.344 368.371C759.751 368.882 758.963 369.137 757.979 369.137C756.99 369.137 756.197 368.879 755.6 368.364C755.007 367.849 754.711 367.157 754.711 366.286C754.711 365.753 754.852 365.274 755.135 364.851C755.417 364.427 755.814 364.101 756.324 363.873C755.896 363.654 755.556 363.356 755.306 362.978C755.06 362.595 754.937 362.16 754.937 361.672C754.937 360.824 755.21 360.152 755.757 359.655C756.304 359.159 757.042 358.91 757.972 358.91C758.906 358.91 759.646 359.159 760.193 359.655C760.74 360.152 761.014 360.824 761.014 361.672ZM759.571 366.204C759.571 365.712 759.423 365.315 759.127 365.015C758.835 364.709 758.448 364.557 757.965 364.557C757.482 364.557 757.094 364.707 756.803 365.008C756.516 365.309 756.372 365.707 756.372 366.204C756.372 366.692 756.513 367.081 756.796 367.373C757.083 367.665 757.477 367.811 757.979 367.811C758.48 367.811 758.869 367.669 759.147 367.387C759.43 367.104 759.571 366.71 759.571 366.204ZM759.359 361.733C759.359 361.3 759.234 360.945 758.983 360.667C758.733 360.384 758.396 360.243 757.972 360.243C757.548 360.243 757.213 360.378 756.967 360.646C756.721 360.911 756.598 361.273 756.598 361.733C756.598 362.189 756.721 362.551 756.967 362.82C757.217 363.089 757.555 363.224 757.979 363.224C758.402 363.224 758.737 363.089 758.983 362.82C759.234 362.551 759.359 362.189 759.359 361.733ZM763.276 369.854H761.971L765.888 359.047H767.193L763.276 369.854ZM772.949 364.837C772.393 365.425 771.744 365.719 771.001 365.719C770.126 365.719 769.429 365.413 768.909 364.803C768.39 364.188 768.13 363.381 768.13 362.383C768.13 361.727 768.262 361.132 768.526 360.599C768.791 360.065 769.167 359.651 769.654 359.354C770.142 359.058 770.707 358.91 771.35 358.91C772.352 358.91 773.147 359.284 773.735 360.031C774.323 360.779 774.617 361.779 774.617 363.032V363.497C774.617 365.293 774.212 366.662 773.4 367.605C772.589 368.549 771.379 369.027 769.771 369.041H769.572V367.667H769.812C770.791 367.653 771.543 367.419 772.067 366.963C772.591 366.503 772.885 365.794 772.949 364.837ZM771.35 364.42C771.682 364.42 771.994 364.324 772.286 364.133C772.578 363.941 772.803 363.677 772.963 363.34V362.69C772.963 361.957 772.812 361.367 772.512 360.92C772.211 360.473 771.821 360.25 771.343 360.25C770.864 360.25 770.481 360.448 770.194 360.845C769.912 361.237 769.771 361.733 769.771 362.335C769.771 362.959 769.914 363.463 770.201 363.846C770.488 364.229 770.871 364.42 771.35 364.42Z" fill="#4D555B"/>
<path d="M402.519 43.833L405.048 36.0469H406.948L403.366 46H401.691L398.123 36.0469H400.017L402.519 43.833ZM415.924 41.2832C415.924 42.2585 415.755 43.1152 415.418 43.8535C415.081 44.5872 414.598 45.1523 413.969 45.5488C413.344 45.9408 412.624 46.1367 411.809 46.1367C411.002 46.1367 410.282 45.9408 409.648 45.5488C409.02 45.1523 408.532 44.5895 408.186 43.8604C407.844 43.1312 407.671 42.2904 407.666 41.3379V40.7773C407.666 39.8066 407.837 38.9499 408.179 38.207C408.525 37.4642 409.01 36.8968 409.635 36.5049C410.264 36.1084 410.984 35.9102 411.795 35.9102C412.606 35.9102 413.324 36.1061 413.948 36.498C414.577 36.8854 415.062 37.446 415.404 38.1797C415.746 38.9089 415.919 39.7588 415.924 40.7295V41.2832ZM414.194 40.7637C414.194 39.6608 413.985 38.8154 413.565 38.2275C413.151 37.6396 412.561 37.3457 411.795 37.3457C411.048 37.3457 410.462 37.6396 410.038 38.2275C409.619 38.8109 409.405 39.638 409.396 40.709V41.2832C409.396 42.377 409.607 43.2223 410.031 43.8193C410.46 44.4163 411.052 44.7148 411.809 44.7148C412.574 44.7148 413.162 44.4232 413.572 43.8398C413.987 43.2565 414.194 42.4043 414.194 41.2832V40.7637ZM419.472 46H417.749V36.0469H419.472V46ZM429.192 42.7598C429.092 43.8216 428.7 44.651 428.017 45.248C427.333 45.8405 426.424 46.1367 425.289 46.1367C424.496 46.1367 423.797 45.9499 423.19 45.5762C422.589 45.1979 422.124 44.6624 421.796 43.9697C421.468 43.277 421.297 42.4727 421.283 41.5566V40.627C421.283 39.6882 421.45 38.861 421.782 38.1455C422.115 37.43 422.591 36.8786 423.211 36.4912C423.835 36.1038 424.555 35.9102 425.371 35.9102C426.469 35.9102 427.354 36.2087 428.023 36.8057C428.693 37.4027 429.083 38.2458 429.192 39.335H427.47C427.388 38.6195 427.178 38.1045 426.841 37.79C426.508 37.471 426.018 37.3115 425.371 37.3115C424.619 37.3115 424.04 37.5872 423.635 38.1387C423.234 38.6855 423.029 39.4899 423.02 40.5518V41.4336C423.02 42.5091 423.211 43.3294 423.594 43.8945C423.981 44.4596 424.546 44.7422 425.289 44.7422C425.968 44.7422 426.479 44.5895 426.82 44.2842C427.162 43.9788 427.379 43.4707 427.47 42.7598H429.192ZM436.562 41.5566H432.474V44.6191H437.252V46H430.744V36.0469H437.204V37.4414H432.474V40.1895H436.562V41.5566ZM449.741 42.7598C449.641 43.8216 449.249 44.651 448.565 45.248C447.882 45.8405 446.973 46.1367 445.838 46.1367C445.045 46.1367 444.345 45.9499 443.739 45.5762C443.138 45.1979 442.673 44.6624 442.345 43.9697C442.017 43.277 441.846 42.4727 441.832 41.5566V40.627C441.832 39.6882 441.998 38.861 442.331 38.1455C442.664 37.43 443.14 36.8786 443.76 36.4912C444.384 36.1038 445.104 35.9102 445.92 35.9102C447.018 35.9102 447.902 36.2087 448.572 36.8057C449.242 37.4027 449.632 38.2458 449.741 39.335H448.019C447.937 38.6195 447.727 38.1045 447.39 37.79C447.057 37.471 446.567 37.3115 445.92 37.3115C445.168 37.3115 444.589 37.5872 444.184 38.1387C443.783 38.6855 443.577 39.4899 443.568 40.5518V41.4336C443.568 42.5091 443.76 43.3294 444.143 43.8945C444.53 44.4596 445.095 44.7422 445.838 44.7422C446.517 44.7422 447.027 44.5895 447.369 44.2842C447.711 43.9788 447.927 43.4707 448.019 42.7598H449.741ZM459.236 41.2832C459.236 42.2585 459.068 43.1152 458.73 43.8535C458.393 44.5872 457.91 45.1523 457.281 45.5488C456.657 45.9408 455.937 46.1367 455.121 46.1367C454.314 46.1367 453.594 45.9408 452.961 45.5488C452.332 45.1523 451.844 44.5895 451.498 43.8604C451.156 43.1312 450.983 42.2904 450.979 41.3379V40.7773C450.979 39.8066 451.149 38.9499 451.491 38.207C451.838 37.4642 452.323 36.8968 452.947 36.5049C453.576 36.1084 454.296 35.9102 455.107 35.9102C455.919 35.9102 456.636 36.1061 457.261 36.498C457.89 36.8854 458.375 37.446 458.717 38.1797C459.059 38.9089 459.232 39.7588 459.236 40.7295V41.2832ZM457.507 40.7637C457.507 39.6608 457.297 38.8154 456.878 38.2275C456.463 37.6396 455.873 37.3457 455.107 37.3457C454.36 37.3457 453.774 37.6396 453.351 38.2275C452.931 38.8109 452.717 39.638 452.708 40.709V41.2832C452.708 42.377 452.92 43.2223 453.344 43.8193C453.772 44.4163 454.365 44.7148 455.121 44.7148C455.887 44.7148 456.475 44.4232 456.885 43.8398C457.299 43.2565 457.507 42.4043 457.507 41.2832V40.7637ZM468.854 46H467.125L462.688 38.9385V46H460.959V36.0469H462.688L467.139 43.1357V36.0469H468.854V46ZM476.101 43.4365C476.101 42.999 475.946 42.6618 475.636 42.4248C475.33 42.1878 474.777 41.9486 473.975 41.707C473.173 41.4655 472.535 41.1966 472.061 40.9004C471.154 40.3307 470.7 39.5879 470.7 38.6719C470.7 37.8698 471.026 37.209 471.678 36.6895C472.334 36.1699 473.184 35.9102 474.228 35.9102C474.92 35.9102 475.538 36.0378 476.08 36.293C476.622 36.5482 477.049 36.9128 477.358 37.3867C477.668 37.8561 477.823 38.3779 477.823 38.9521H476.101C476.101 38.4326 475.937 38.027 475.608 37.7354C475.285 37.4391 474.82 37.291 474.214 37.291C473.649 37.291 473.209 37.4118 472.895 37.6533C472.585 37.8949 472.43 38.2321 472.43 38.665C472.43 39.0296 472.598 39.335 472.936 39.5811C473.273 39.8226 473.829 40.0596 474.604 40.292C475.378 40.5199 476 40.7819 476.47 41.0781C476.939 41.3698 477.283 41.707 477.502 42.0898C477.721 42.4681 477.83 42.9124 477.83 43.4229C477.83 44.2523 477.511 44.9131 476.873 45.4053C476.24 45.8929 475.378 46.1367 474.289 46.1367C473.569 46.1367 472.906 46.0046 472.3 45.7402C471.698 45.4714 471.229 45.1022 470.892 44.6328C470.559 44.1634 470.393 43.6165 470.393 42.9922H472.122C472.122 43.5573 472.309 43.9948 472.683 44.3047C473.056 44.6146 473.592 44.7695 474.289 44.7695C474.891 44.7695 475.342 44.6488 475.643 44.4072C475.948 44.1611 476.101 43.8376 476.101 43.4365ZM486.628 36.0469V42.6982C486.628 43.7555 486.288 44.5941 485.609 45.2139C484.935 45.8291 484.035 46.1367 482.909 46.1367C481.77 46.1367 480.865 45.8337 480.195 45.2275C479.525 44.6169 479.19 43.7715 479.19 42.6914V36.0469H480.913V42.7051C480.913 43.3704 481.082 43.8786 481.419 44.2295C481.756 44.5804 482.253 44.7559 482.909 44.7559C484.24 44.7559 484.905 44.054 484.905 42.6504V36.0469H486.628ZM490.21 44.6191H494.729V46H488.48V36.0469H490.21V44.6191ZM501.838 37.4414H498.734V46H497.019V37.4414H493.942V36.0469H501.838V37.4414Z" fill="#4D555B"/>
<path d="M331.814 65H328.545V43.3262L321.988 45.7344V42.7812L331.305 39.2832H331.814V65ZM353.805 53.75C353.125 54.5586 352.311 55.209 351.361 55.7012C350.424 56.1934 349.393 56.4395 348.268 56.4395C346.791 56.4395 345.502 56.0762 344.4 55.3496C343.311 54.623 342.467 53.6035 341.869 52.291C341.271 50.9668 340.973 49.5078 340.973 47.9141C340.973 46.2031 341.295 44.6621 341.939 43.291C342.596 41.9199 343.521 40.8711 344.717 40.1445C345.912 39.418 347.307 39.0547 348.9 39.0547C351.432 39.0547 353.424 40.0039 354.877 41.9023C356.342 43.7891 357.074 46.3672 357.074 49.6367V50.5859C357.074 55.5664 356.09 59.2051 354.121 61.502C352.152 63.7871 349.182 64.959 345.209 65.0176H344.576V62.2754H345.262C347.945 62.2285 350.008 61.5312 351.449 60.1836C352.891 58.8242 353.676 56.6797 353.805 53.75ZM348.795 53.75C349.885 53.75 350.887 53.416 351.801 52.748C352.727 52.0801 353.4 51.2539 353.822 50.2695V48.9688C353.822 46.8359 353.359 45.1016 352.434 43.7656C351.508 42.4297 350.336 41.7617 348.918 41.7617C347.488 41.7617 346.34 42.3125 345.473 43.4141C344.605 44.5039 344.172 45.9453 344.172 47.7383C344.172 49.4844 344.588 50.9258 345.42 52.0625C346.264 53.1875 347.389 53.75 348.795 53.75ZM377.078 46.0859C377.078 47.3633 376.738 48.5 376.059 49.4961C375.391 50.4922 374.482 51.2715 373.334 51.834C374.67 52.4082 375.725 53.2461 376.498 54.3477C377.283 55.4492 377.676 56.6973 377.676 58.0918C377.676 60.3066 376.926 62.0703 375.426 63.3828C373.938 64.6953 371.975 65.3516 369.537 65.3516C367.076 65.3516 365.102 64.6953 363.613 63.3828C362.137 62.0586 361.398 60.2949 361.398 58.0918C361.398 56.709 361.773 55.4609 362.523 54.3477C363.285 53.2344 364.334 52.3906 365.67 51.8164C364.533 51.2539 363.637 50.4746 362.98 49.4785C362.324 48.4824 361.996 47.3516 361.996 46.0859C361.996 43.9297 362.688 42.2188 364.07 40.9531C365.453 39.6875 367.275 39.0547 369.537 39.0547C371.787 39.0547 373.604 39.6875 374.986 40.9531C376.381 42.2188 377.078 43.9297 377.078 46.0859ZM374.424 58.0215C374.424 56.5918 373.967 55.4258 373.053 54.5234C372.15 53.6211 370.967 53.1699 369.502 53.1699C368.037 53.1699 366.859 53.6152 365.969 54.5059C365.09 55.3965 364.65 56.5684 364.65 58.0215C364.65 59.4746 365.078 60.6172 365.934 61.4492C366.801 62.2812 368.002 62.6973 369.537 62.6973C371.061 62.6973 372.256 62.2812 373.123 61.4492C373.99 60.6055 374.424 59.4629 374.424 58.0215ZM369.537 41.7266C368.26 41.7266 367.223 42.125 366.426 42.9219C365.641 43.707 365.248 44.7793 365.248 46.1387C365.248 47.4395 365.635 48.4941 366.408 49.3027C367.193 50.0996 368.236 50.498 369.537 50.498C370.838 50.498 371.875 50.0996 372.648 49.3027C373.434 48.4941 373.826 47.4395 373.826 46.1387C373.826 44.8379 373.422 43.7773 372.613 42.957C371.805 42.1367 370.779 41.7266 369.537 41.7266Z" fill="url(#paint1_linear)"/>
<path opacity="0.6" d="M681.189 61.0645L681.729 56.0469H687.075V57.4824H683.11L682.837 59.8613C683.297 59.597 683.817 59.4648 684.396 59.4648C685.343 59.4648 686.079 59.7679 686.604 60.374C687.132 60.9801 687.396 61.7959 687.396 62.8213C687.396 63.833 687.105 64.6396 686.521 65.2412C685.938 65.8382 685.138 66.1367 684.122 66.1367C683.211 66.1367 682.454 65.8792 681.853 65.3643C681.256 64.8447 680.932 64.1611 680.882 63.3135H682.488C682.552 63.7965 682.725 64.168 683.008 64.4277C683.29 64.6829 683.66 64.8105 684.115 64.8105C684.626 64.8105 685.022 64.6283 685.305 64.2637C685.592 63.8991 685.735 63.4023 685.735 62.7734C685.735 62.1673 685.578 61.6888 685.264 61.3379C684.949 60.9824 684.516 60.8047 683.965 60.8047C683.664 60.8047 683.409 60.8457 683.199 60.9277C682.99 61.0052 682.762 61.1602 682.516 61.3926L681.189 61.0645ZM693.2 66H691.546V58.0088L689.105 58.8428V57.4414L692.988 56.0127H693.2V66ZM696.591 57.9609C696.591 57.3594 696.785 56.8672 697.172 56.4844C697.559 56.097 698.067 55.9033 698.696 55.9033C699.334 55.9033 699.845 56.097 700.228 56.4844C700.615 56.8672 700.809 57.3708 700.809 57.9951V58.4873C700.809 59.0843 700.615 59.5742 700.228 59.957C699.845 60.3398 699.339 60.5312 698.71 60.5312C698.095 60.5312 697.587 60.3444 697.186 59.9707C696.789 59.5924 696.591 59.0843 696.591 58.4463V57.9609ZM697.753 58.4873C697.753 58.8018 697.84 59.057 698.013 59.2529C698.19 59.4443 698.423 59.54 698.71 59.54C698.993 59.54 699.22 59.4443 699.394 59.2529C699.567 59.057 699.653 58.7926 699.653 58.46V57.9609C699.653 57.6465 699.564 57.3913 699.387 57.1953C699.214 56.9993 698.983 56.9014 698.696 56.9014C698.409 56.9014 698.179 57.0016 698.006 57.2021C697.837 57.3981 697.753 57.6579 697.753 57.9814V58.4873ZM701.376 63.5596C701.376 62.9489 701.574 62.4544 701.971 62.0762C702.367 61.6979 702.873 61.5088 703.488 61.5088C704.108 61.5088 704.614 61.6979 705.006 62.0762C705.402 62.4544 705.601 62.9648 705.601 63.6074V64.0928C705.601 64.6852 705.409 65.1751 705.026 65.5625C704.648 65.9453 704.14 66.1367 703.502 66.1367C702.864 66.1367 702.349 65.9476 701.957 65.5693C701.57 65.1865 701.376 64.6829 701.376 64.0586V63.5596ZM702.538 64.0928C702.538 64.4027 702.627 64.6579 702.805 64.8584C702.987 65.0544 703.219 65.1523 703.502 65.1523C703.794 65.1523 704.021 65.0589 704.186 64.8721C704.354 64.6807 704.438 64.4141 704.438 64.0723V63.5596C704.438 63.2406 704.35 62.9854 704.172 62.7939C703.994 62.6025 703.766 62.5068 703.488 62.5068C703.206 62.5068 702.976 62.6025 702.798 62.7939C702.625 62.9854 702.538 63.2497 702.538 63.5869V64.0928ZM699.052 65.2549L698.197 64.7627L703.058 56.9834L703.912 57.4756L699.052 65.2549ZM712.519 66H710.796V56.0469H712.519V66ZM716.025 58.6035L716.073 59.458C716.62 58.7972 717.338 58.4668 718.227 58.4668C719.767 58.4668 720.551 59.3486 720.578 61.1123V66H718.917V61.208C718.917 60.7386 718.814 60.3923 718.609 60.1689C718.409 59.9411 718.078 59.8271 717.618 59.8271C716.948 59.8271 716.449 60.1302 716.121 60.7363V66H714.46V58.6035H716.025ZM725.315 64.8105C725.73 64.8105 726.074 64.6898 726.348 64.4482C726.621 64.2067 726.767 63.9082 726.785 63.5527H728.351C728.332 64.013 728.189 64.4437 727.92 64.8447C727.651 65.2412 727.286 65.5557 726.826 65.7881C726.366 66.0205 725.869 66.1367 725.336 66.1367C724.301 66.1367 723.481 65.8018 722.875 65.1318C722.269 64.4619 721.966 63.5368 721.966 62.3564V62.1855C721.966 61.0599 722.267 60.1598 722.868 59.4854C723.47 58.8063 724.29 58.4668 725.329 58.4668C726.209 58.4668 726.924 58.7243 727.476 59.2393C728.032 59.7497 728.323 60.4219 728.351 61.2559H726.785C726.767 60.832 726.621 60.4834 726.348 60.21C726.079 59.9365 725.735 59.7998 725.315 59.7998C724.778 59.7998 724.363 59.9958 724.071 60.3877C723.78 60.7751 723.632 61.3652 723.627 62.1582V62.4248C723.627 63.2269 723.771 63.8262 724.058 64.2227C724.349 64.6146 724.769 64.8105 725.315 64.8105ZM733.478 60.1211C733.259 60.0846 733.033 60.0664 732.801 60.0664C732.04 60.0664 731.527 60.3581 731.263 60.9414V66H729.602V58.6035H731.188L731.229 59.4307C731.63 58.7881 732.186 58.4668 732.896 58.4668C733.133 58.4668 733.329 58.4987 733.484 58.5625L733.478 60.1211ZM737.647 66.1367C736.595 66.1367 735.74 65.8063 735.084 65.1455C734.432 64.4801 734.106 63.596 734.106 62.4932V62.2881C734.106 61.5498 734.248 60.8913 734.53 60.3125C734.817 59.7292 735.218 59.2757 735.733 58.9521C736.248 58.6286 736.823 58.4668 737.456 58.4668C738.463 58.4668 739.24 58.7881 739.787 59.4307C740.339 60.0732 740.614 60.9824 740.614 62.1582V62.8281H735.781C735.831 63.4388 736.034 63.9219 736.39 64.2773C736.75 64.6328 737.201 64.8105 737.743 64.8105C738.504 64.8105 739.124 64.5029 739.603 63.8877L740.498 64.7422C740.202 65.1842 739.805 65.5283 739.309 65.7744C738.816 66.016 738.263 66.1367 737.647 66.1367ZM737.449 59.7998C736.993 59.7998 736.624 59.9593 736.342 60.2783C736.064 60.5973 735.886 61.0417 735.809 61.6113H738.974V61.4883C738.937 60.9323 738.789 60.513 738.529 60.2305C738.27 59.9434 737.91 59.7998 737.449 59.7998ZM746.329 66C746.256 65.8587 746.192 65.6286 746.138 65.3096C745.609 65.861 744.962 66.1367 744.196 66.1367C743.453 66.1367 742.847 65.9248 742.378 65.501C741.909 65.0771 741.674 64.5531 741.674 63.9287C741.674 63.1403 741.965 62.5365 742.549 62.1172C743.137 61.6934 743.975 61.4814 745.064 61.4814H746.083V60.9961C746.083 60.6133 745.976 60.3079 745.762 60.0801C745.548 59.8477 745.222 59.7314 744.784 59.7314C744.406 59.7314 744.096 59.8271 743.854 60.0186C743.613 60.2054 743.492 60.4447 743.492 60.7363H741.831C741.831 60.3307 741.965 59.9525 742.234 59.6016C742.503 59.2461 742.868 58.9681 743.328 58.7676C743.793 58.5671 744.31 58.4668 744.88 58.4668C745.746 58.4668 746.436 58.6855 746.951 59.123C747.466 59.556 747.73 60.1667 747.744 60.9551V64.291C747.744 64.9564 747.838 65.4873 748.024 65.8838V66H746.329ZM744.504 64.8037C744.832 64.8037 745.14 64.724 745.427 64.5645C745.718 64.4049 745.937 64.1908 746.083 63.9219V62.5273H745.188C744.572 62.5273 744.11 62.6344 743.8 62.8486C743.49 63.0628 743.335 63.3659 743.335 63.7578C743.335 64.0768 743.44 64.332 743.649 64.5234C743.864 64.7103 744.148 64.8037 744.504 64.8037ZM753.63 63.9902C753.63 63.694 753.507 63.4684 753.261 63.3135C753.019 63.1585 752.616 63.0218 752.051 62.9033C751.486 62.7848 751.014 62.6344 750.636 62.4521C749.806 62.0511 749.392 61.4701 749.392 60.709C749.392 60.071 749.66 59.5378 750.198 59.1094C750.736 58.681 751.42 58.4668 752.249 58.4668C753.133 58.4668 753.846 58.6855 754.389 59.123C754.936 59.5605 755.209 60.1279 755.209 60.8252H753.548C753.548 60.5062 753.429 60.2419 753.192 60.0322C752.955 59.818 752.641 59.7109 752.249 59.7109C751.884 59.7109 751.586 59.7952 751.354 59.9639C751.126 60.1325 751.012 60.3581 751.012 60.6406C751.012 60.8958 751.119 61.0941 751.333 61.2354C751.547 61.3766 751.98 61.5202 752.632 61.666C753.284 61.8073 753.794 61.9782 754.163 62.1787C754.537 62.3747 754.812 62.6117 754.99 62.8896C755.173 63.1676 755.264 63.5049 755.264 63.9014C755.264 64.5667 754.988 65.1068 754.437 65.5215C753.885 65.9316 753.163 66.1367 752.27 66.1367C751.663 66.1367 751.123 66.0273 750.649 65.8086C750.175 65.5898 749.806 65.2891 749.542 64.9062C749.278 64.5234 749.146 64.111 749.146 63.6689H750.759C750.782 64.0609 750.93 64.3639 751.203 64.5781C751.477 64.7878 751.839 64.8926 752.29 64.8926C752.728 64.8926 753.06 64.8105 753.288 64.6465C753.516 64.4779 753.63 64.2591 753.63 63.9902ZM759.974 66.1367C758.921 66.1367 758.066 65.8063 757.41 65.1455C756.758 64.4801 756.433 63.596 756.433 62.4932V62.2881C756.433 61.5498 756.574 60.8913 756.856 60.3125C757.144 59.7292 757.545 59.2757 758.06 58.9521C758.575 58.6286 759.149 58.4668 759.782 58.4668C760.789 58.4668 761.566 58.7881 762.113 59.4307C762.665 60.0732 762.94 60.9824 762.94 62.1582V62.8281H758.107C758.158 63.4388 758.36 63.9219 758.716 64.2773C759.076 64.6328 759.527 64.8105 760.069 64.8105C760.83 64.8105 761.45 64.5029 761.929 63.8877L762.824 64.7422C762.528 65.1842 762.132 65.5283 761.635 65.7744C761.143 66.016 760.589 66.1367 759.974 66.1367ZM759.775 59.7998C759.32 59.7998 758.951 59.9593 758.668 60.2783C758.39 60.5973 758.212 61.0417 758.135 61.6113H761.3V61.4883C761.263 60.9323 761.115 60.513 760.855 60.2305C760.596 59.9434 760.236 59.7998 759.775 59.7998Z" fill="#4D555B"/>
<path d="M684.519 43.833L687.048 36.0469H688.948L685.366 46H683.691L680.123 36.0469H682.017L684.519 43.833ZM691.901 46H690.179V36.0469H691.901V46ZM694.027 46V36.0469H696.967C697.846 36.0469 698.626 36.2428 699.305 36.6348C699.988 37.0267 700.517 37.5827 700.891 38.3027C701.264 39.0228 701.451 39.8477 701.451 40.7773V41.2764C701.451 42.2197 701.262 43.0492 700.884 43.7646C700.51 44.4801 699.975 45.0316 699.277 45.4189C698.585 45.8063 697.789 46 696.892 46H694.027ZM695.757 37.4414V44.6191H696.885C697.792 44.6191 698.487 44.3366 698.97 43.7715C699.457 43.2018 699.706 42.3861 699.715 41.3242V40.7705C699.715 39.6904 699.48 38.8656 699.011 38.2959C698.541 37.7262 697.86 37.4414 696.967 37.4414H695.757ZM708.991 41.5566H704.903V44.6191H709.682V46H703.174V36.0469H709.634V37.4414H704.903V40.1895H708.991V41.5566ZM719.033 41.2832C719.033 42.2585 718.865 43.1152 718.527 43.8535C718.19 44.5872 717.707 45.1523 717.078 45.5488C716.454 45.9408 715.734 46.1367 714.918 46.1367C714.111 46.1367 713.391 45.9408 712.758 45.5488C712.129 45.1523 711.641 44.5895 711.295 43.8604C710.953 43.1312 710.78 42.2904 710.775 41.3379V40.7773C710.775 39.8066 710.946 38.9499 711.288 38.207C711.634 37.4642 712.12 36.8968 712.744 36.5049C713.373 36.1084 714.093 35.9102 714.904 35.9102C715.715 35.9102 716.433 36.1061 717.058 36.498C717.687 36.8854 718.172 37.446 718.514 38.1797C718.855 38.9089 719.029 39.7588 719.033 40.7295V41.2832ZM717.304 40.7637C717.304 39.6608 717.094 38.8154 716.675 38.2275C716.26 37.6396 715.67 37.3457 714.904 37.3457C714.157 37.3457 713.571 37.6396 713.147 38.2275C712.728 38.8109 712.514 39.638 712.505 40.709V41.2832C712.505 42.377 712.717 43.2223 713.141 43.8193C713.569 44.4163 714.161 44.7148 714.918 44.7148C715.684 44.7148 716.271 44.4232 716.682 43.8398C717.096 43.2565 717.304 42.4043 717.304 41.2832V40.7637ZM731.837 42.7598C731.737 43.8216 731.345 44.651 730.661 45.248C729.978 45.8405 729.068 46.1367 727.934 46.1367C727.141 46.1367 726.441 45.9499 725.835 45.5762C725.233 45.1979 724.769 44.6624 724.44 43.9697C724.112 43.277 723.941 42.4727 723.928 41.5566V40.627C723.928 39.6882 724.094 38.861 724.427 38.1455C724.759 37.43 725.236 36.8786 725.855 36.4912C726.48 36.1038 727.2 35.9102 728.016 35.9102C729.114 35.9102 729.998 36.2087 730.668 36.8057C731.338 37.4027 731.728 38.2458 731.837 39.335H730.114C730.032 38.6195 729.823 38.1045 729.485 37.79C729.153 37.471 728.663 37.3115 728.016 37.3115C727.264 37.3115 726.685 37.5872 726.279 38.1387C725.878 38.6855 725.673 39.4899 725.664 40.5518V41.4336C725.664 42.5091 725.855 43.3294 726.238 43.8945C726.626 44.4596 727.191 44.7422 727.934 44.7422C728.613 44.7422 729.123 44.5895 729.465 44.2842C729.807 43.9788 730.023 43.4707 730.114 42.7598H731.837ZM741.332 41.2832C741.332 42.2585 741.163 43.1152 740.826 43.8535C740.489 44.5872 740.006 45.1523 739.377 45.5488C738.753 45.9408 738.033 46.1367 737.217 46.1367C736.41 46.1367 735.69 45.9408 735.057 45.5488C734.428 45.1523 733.94 44.5895 733.594 43.8604C733.252 43.1312 733.079 42.2904 733.074 41.3379V40.7773C733.074 39.8066 733.245 38.9499 733.587 38.207C733.933 37.4642 734.419 36.8968 735.043 36.5049C735.672 36.1084 736.392 35.9102 737.203 35.9102C738.014 35.9102 738.732 36.1061 739.356 36.498C739.985 36.8854 740.471 37.446 740.812 38.1797C741.154 38.9089 741.327 39.7588 741.332 40.7295V41.2832ZM739.603 40.7637C739.603 39.6608 739.393 38.8154 738.974 38.2275C738.559 37.6396 737.969 37.3457 737.203 37.3457C736.456 37.3457 735.87 37.6396 735.446 38.2275C735.027 38.8109 734.813 39.638 734.804 40.709V41.2832C734.804 42.377 735.016 43.2223 735.439 43.8193C735.868 44.4163 736.46 44.7148 737.217 44.7148C737.982 44.7148 738.57 44.4232 738.98 43.8398C739.395 43.2565 739.603 42.4043 739.603 41.2832V40.7637ZM750.95 46H749.221L744.784 38.9385V46H743.055V36.0469H744.784L749.234 43.1357V36.0469H750.95V46ZM758.196 43.4365C758.196 42.999 758.041 42.6618 757.731 42.4248C757.426 42.1878 756.872 41.9486 756.07 41.707C755.268 41.4655 754.63 41.1966 754.156 40.9004C753.249 40.3307 752.796 39.5879 752.796 38.6719C752.796 37.8698 753.122 37.209 753.773 36.6895C754.43 36.1699 755.28 35.9102 756.323 35.9102C757.016 35.9102 757.633 36.0378 758.176 36.293C758.718 36.5482 759.144 36.9128 759.454 37.3867C759.764 37.8561 759.919 38.3779 759.919 38.9521H758.196C758.196 38.4326 758.032 38.027 757.704 37.7354C757.381 37.4391 756.916 37.291 756.31 37.291C755.744 37.291 755.305 37.4118 754.99 37.6533C754.68 37.8949 754.525 38.2321 754.525 38.665C754.525 39.0296 754.694 39.335 755.031 39.5811C755.368 39.8226 755.924 40.0596 756.699 40.292C757.474 40.5199 758.096 40.7819 758.565 41.0781C759.035 41.3698 759.379 41.707 759.598 42.0898C759.816 42.4681 759.926 42.9124 759.926 43.4229C759.926 44.2523 759.607 44.9131 758.969 45.4053C758.335 45.8929 757.474 46.1367 756.385 46.1367C755.665 46.1367 755.002 46.0046 754.396 45.7402C753.794 45.4714 753.325 45.1022 752.987 44.6328C752.655 44.1634 752.488 43.6165 752.488 42.9922H754.218C754.218 43.5573 754.405 43.9948 754.778 44.3047C755.152 44.6146 755.688 44.7695 756.385 44.7695C756.986 44.7695 757.438 44.6488 757.738 44.4072C758.044 44.1611 758.196 43.8376 758.196 43.4365ZM768.724 36.0469V42.6982C768.724 43.7555 768.384 44.5941 767.705 45.2139C767.031 45.8291 766.131 46.1367 765.005 46.1367C763.866 46.1367 762.961 45.8337 762.291 45.2275C761.621 44.6169 761.286 43.7715 761.286 42.6914V36.0469H763.009V42.7051C763.009 43.3704 763.177 43.8786 763.515 44.2295C763.852 44.5804 764.349 44.7559 765.005 44.7559C766.336 44.7559 767.001 44.054 767.001 42.6504V36.0469H768.724ZM772.306 44.6191H776.824V46H770.576V36.0469H772.306V44.6191ZM783.934 37.4414H780.83V46H779.114V37.4414H776.038V36.0469H783.934V37.4414Z" fill="#4D555B"/>
<path d="M630.896 65H614.127V62.6621L622.986 52.8184C624.299 51.3301 625.201 50.123 625.693 49.1973C626.197 48.2598 626.449 47.293 626.449 46.2969C626.449 44.9609 626.045 43.8652 625.236 43.0098C624.428 42.1543 623.35 41.7266 622.002 41.7266C620.385 41.7266 619.125 42.1895 618.223 43.1152C617.332 44.0293 616.887 45.3066 616.887 46.9473H613.635C613.635 44.5918 614.391 42.6875 615.902 41.2344C617.426 39.7812 619.459 39.0547 622.002 39.0547C624.381 39.0547 626.262 39.6816 627.645 40.9355C629.027 42.1777 629.719 43.8359 629.719 45.9102C629.719 48.4297 628.113 51.4297 624.902 54.9102L618.047 62.3457H630.896V65ZM645.029 65H641.76V43.3262L635.203 45.7344V42.7812L644.52 39.2832H645.029V65Z" fill="url(#paint2_linear)"/>
<line x1="34" y1="93.75" x2="796" y2="93.75" stroke="#DADADA" stroke-width="0.5"/>
<line x1="-2.18557e-08" y1="336.75" x2="833" y2="336.75" stroke="#DADADA" stroke-width="0.5"/>
<rect x="51" y="171" width="9" height="167" rx="4.5" fill="#4F94FF"/>
<rect x="68" y="222" width="9" height="116" rx="4.5" fill="#6AE3FF"/>
<rect x="84" y="255" width="9" height="83" rx="4.5" fill="#FFA6FA"/>
<rect x="146" y="171" width="9" height="167" rx="4.5" fill="#4F94FF"/>
<rect x="163" y="222" width="9" height="116" rx="4.5" fill="#6AE3FF"/>
<rect x="179" y="255" width="9" height="83" rx="4.5" fill="#FFA6FA"/>
<rect x="246" y="171" width="9" height="167" rx="4.5" fill="#4F94FF"/>
<rect x="263" y="222" width="9" height="116" rx="4.5" fill="#6AE3FF"/>
<rect x="279" y="255" width="9" height="83" rx="4.5" fill="#FFA6FA"/>
<rect x="341" y="171" width="9" height="167" rx="4.5" fill="#4F94FF"/>
<rect x="358" y="222" width="9" height="116" rx="4.5" fill="#6AE3FF"/>
<rect x="374" y="255" width="9" height="83" rx="4.5" fill="#FFA6FA"/>
<rect x="449" y="171" width="9" height="167" rx="4.5" fill="#4F94FF"/>
<rect x="466" y="222" width="9" height="116" rx="4.5" fill="#6AE3FF"/>
<rect x="482" y="255" width="9" height="83" rx="4.5" fill="#FFA6FA"/>
<rect x="544" y="171" width="9" height="167" rx="4.5" fill="#4F94FF"/>
<rect x="561" y="222" width="9" height="116" rx="4.5" fill="#6AE3FF"/>
<rect x="577" y="255" width="9" height="83" rx="4.5" fill="#FFA6FA"/>
<rect x="648" y="171" width="9" height="167" rx="4.5" fill="#4F94FF"/>
<rect x="665" y="222" width="9" height="116" rx="4.5" fill="#6AE3FF"/>
<rect x="681" y="255" width="9" height="83" rx="4.5" fill="#FFA6FA"/>
<rect x="743" y="171" width="9" height="167" rx="4.5" fill="#4F94FF"/>
<rect x="760" y="222" width="9" height="116" rx="4.5" fill="#6AE3FF"/>
<rect x="776" y="255" width="9" height="83" rx="4.5" fill="#FFA6FA"/>
<defs>
<linearGradient id="paint0_linear" x1="43.93" y1="42.75" x2="79.981" y2="77.5004" gradientUnits="userSpaceOnUse">
<stop stop-color="#4F94FF"/>
<stop offset="1" stop-color="#33BEE0"/>
</linearGradient>
<linearGradient id="paint1_linear" x1="326.93" y1="42.75" x2="362.981" y2="77.5004" gradientUnits="userSpaceOnUse">
<stop stop-color="#6AE3FF"/>
<stop offset="1" stop-color="#33BEE0"/>
</linearGradient>
<linearGradient id="paint2_linear" x1="617.33" y1="42.75" x2="650.255" y2="64.0815" gradientUnits="userSpaceOnUse">
<stop stop-color="#FFA6FA"/>
<stop offset="1" stop-color="#33BEE0"/>
</linearGradient>
</defs>
</svg>
