<svg width="23" height="18" viewBox="0 0 23 18" fill="none" xmlns="http://www.w3.org/2000/svg">
<path d="M11.903 12.3695C12.4212 12.3695 12.8422 11.9362 12.8422 11.405C12.8422 10.8749 12.4212 10.4446 11.903 10.4446L7.64771 7.23911L10.9638 11.4669C10.9945 11.9701 11.4039 12.3695 11.903 12.3695Z" fill="#9FA5AD"/>
<path d="M16.1901 15.2096H6.8103V17.4893H16.1901V15.2096Z" fill="#9FA5AD"/>
<path d="M19.6317 3.44975C17.4596 1.22514 14.5717 0 11.5 0C8.42824 0 5.54029 1.22514 3.36822 3.44975C1.19615 5.67437 0 8.63213 0 11.7782C0 13.8096 0.499681 15.7618 1.43786 17.4894H3.58726L5.15933 16.5597L4.46506 15.328L2.4436 16.5234C1.72945 15.0993 1.32601 13.4862 1.32601 11.7782C1.32601 11.4759 1.33942 11.1768 1.36414 10.881L3.77444 11.3162L4.01557 9.91564L1.5769 9.47526C2.01266 7.50469 2.99519 5.74439 4.35198 4.37087L6.00426 6.38768L7.06802 5.47354L5.40319 3.44152C6.92979 2.26745 8.78808 1.52284 10.8057 1.38297V4.08031H12.1943V1.38297C14.2119 1.52295 16.0702 2.26751 17.5969 3.44157L15.932 5.47354L16.9957 6.38768L18.648 4.37082C20.0048 5.74439 20.9873 7.50469 21.423 9.47521L18.9844 9.9157L19.2256 11.3162L21.6358 10.8809C21.6605 11.1767 21.6739 11.4758 21.6739 11.7781C21.6739 13.4862 21.2706 15.0994 20.5563 16.5234L18.5348 15.3281L17.8406 16.5597L19.4126 17.4893H21.5621C22.5004 15.7617 23 13.8095 23 11.7781C23.0001 8.63207 21.8037 5.67426 19.6317 3.44975Z" fill="#9FA5AD"/>
</svg>
