<svg width="21" height="22" viewBox="0 0 21 22" fill="none" xmlns="http://www.w3.org/2000/svg">
<path d="M20.4449 0H0.555066C0.24978 0 0 0.253467 0 0.56326C0 0.873053 0.24978 1.12652 0.555066 1.12652H1.75308V21.4227C1.75308 21.6292 1.8641 21.8216 2.04449 21.9202C2.22489 22.0188 2.44229 22.0094 2.61344 21.892L5.02335 20.2633L7.44251 21.8967C7.62753 22.0235 7.87269 22.0235 8.05771 21.8967L10.4676 20.268L12.8868 21.9014C13.0718 22.0282 13.317 22.0282 13.502 21.9014L15.9119 20.2727L18.3311 21.9061C18.4236 21.9671 18.53 22 18.6363 22C18.7242 22 18.8167 21.9765 18.9 21.9343C19.0804 21.8357 19.1914 21.6433 19.1914 21.4367L19.1822 1.1406H20.4449C20.7502 1.1406 21 0.887135 21 0.577342C21 0.267549 20.7502 0 20.4449 0ZM18.0859 20.3712L16.2218 19.1133C16.0368 18.9866 15.7916 18.9866 15.6066 19.1133L13.1967 20.7467L10.7775 19.1133C10.5925 18.9866 10.3474 18.9866 10.1623 19.1133L7.75242 20.7421L5.33326 19.1133C5.14824 18.9866 4.90308 18.9866 4.71806 19.1133L2.86322 20.3665V1.12183H18.0813L18.0859 20.3712Z" fill="#9FA5AD"/>
<path d="M5.41639 8.99342H11.2307C11.536 8.99342 11.7858 8.73995 11.7858 8.43016C11.7858 8.12037 11.536 7.8669 11.2307 7.8669H5.41639C5.11111 7.8669 4.86133 8.12037 4.86133 8.43016C4.86133 8.73995 5.10648 8.99342 5.41639 8.99342Z" fill="#9FA5AD"/>
<path d="M5.41639 10.9507H9.77366C10.0789 10.9507 10.3287 10.6972 10.3287 10.3875C10.3287 10.0777 10.0789 9.8242 9.77366 9.8242H5.41639C5.11111 9.8242 4.86133 10.0777 4.86133 10.3875C4.86133 10.6972 5.10648 10.9507 5.41639 10.9507Z" fill="#9FA5AD"/>
<path d="M14.1359 8.99342H15.5883C15.8936 8.99342 16.1434 8.73995 16.1434 8.43016C16.1434 8.12037 15.8936 7.8669 15.5883 7.8669H14.1359C13.8306 7.8669 13.5808 8.12037 13.5808 8.43016C13.5808 8.73995 13.826 8.99342 14.1359 8.99342Z" fill="#9FA5AD"/>
<path d="M14.1359 10.9507H15.5883C15.8936 10.9507 16.1434 10.6972 16.1434 10.3875C16.1434 10.0777 15.8936 9.8242 15.5883 9.8242H14.1359C13.8306 9.8242 13.5808 10.0777 13.5808 10.3875C13.5808 10.6972 13.826 10.9507 14.1359 10.9507Z" fill="#9FA5AD"/>
<path d="M5.41639 4.47318H11.2307C11.536 4.47318 11.7858 4.21971 11.7858 3.90992C11.7858 3.60012 11.536 3.34666 11.2307 3.34666H5.41639C5.11111 3.34666 4.86133 3.60012 4.86133 3.90992C4.86133 4.21971 5.10648 4.47318 5.41639 4.47318Z" fill="#9FA5AD"/>
<path d="M5.41639 6.42592H9.77366C10.0789 6.42592 10.3287 6.17245 10.3287 5.86266C10.3287 5.55287 10.0789 5.2994 9.77366 5.2994H5.41639C5.11111 5.2994 4.86133 5.55287 4.86133 5.86266C4.86133 6.17245 5.10648 6.42592 5.41639 6.42592Z" fill="#9FA5AD"/>
<path d="M14.1359 4.47318H15.5883C15.8936 4.47318 16.1434 4.21971 16.1434 3.90992C16.1434 3.60012 15.8936 3.34666 15.5883 3.34666H14.1359C13.8306 3.34666 13.5808 3.60012 13.5808 3.90992C13.5808 4.21971 13.826 4.47318 14.1359 4.47318Z" fill="#9FA5AD"/>
<path d="M14.1359 6.42592H15.5883C15.8936 6.42592 16.1434 6.17245 16.1434 5.86266C16.1434 5.55287 15.8936 5.2994 15.5883 5.2994H14.1359C13.8306 5.2994 13.5808 5.55287 13.5808 5.86266C13.5808 6.17245 13.826 6.42592 14.1359 6.42592Z" fill="#9FA5AD"/>
<path d="M5.41639 13.5698H11.2307C11.536 13.5698 11.7858 13.3164 11.7858 13.0066C11.7858 12.6968 11.536 12.4433 11.2307 12.4433H5.41639C5.11111 12.4433 4.86133 12.6968 4.86133 13.0066C4.86133 13.3164 5.10648 13.5698 5.41639 13.5698Z" fill="#9FA5AD"/>
<path d="M5.41639 15.5226H9.77366C10.0789 15.5226 10.3287 15.2691 10.3287 14.9593C10.3287 14.6495 10.0789 14.396 9.77366 14.396H5.41639C5.11111 14.396 4.86133 14.6495 4.86133 14.9593C4.86133 15.2691 5.10648 15.5226 5.41639 15.5226Z" fill="#9FA5AD"/>
<path d="M14.1359 13.5698H15.5883C15.8936 13.5698 16.1434 13.3164 16.1434 13.0066C16.1434 12.6968 15.8936 12.4433 15.5883 12.4433H14.1359C13.8306 12.4433 13.5808 12.6968 13.5808 13.0066C13.5808 13.3164 13.826 13.5698 14.1359 13.5698Z" fill="#9FA5AD"/>
<path d="M14.1359 15.5226H15.5883C15.8936 15.5226 16.1434 15.2691 16.1434 14.9593C16.1434 14.6495 15.8936 14.396 15.5883 14.396H14.1359C13.8306 14.396 13.5808 14.6495 13.5808 14.9593C13.5808 15.2691 13.826 15.5226 14.1359 15.5226Z" fill="#9FA5AD"/>
</svg>
