<svg width="23" height="11" viewBox="0 0 23 11" fill="none" xmlns="http://www.w3.org/2000/svg">
<path d="M20.5579 4.56556e-05C19.2113 4.56556e-05 18.1158 1.10562 18.1158 2.46457C18.1158 2.96022 18.262 3.42177 18.5125 3.80861L15.8741 6.47125C15.4907 6.21846 15.0334 6.0709 14.5423 6.0709C14.0333 6.0709 13.5604 6.22903 13.1687 6.4989L10.5032 3.80843C10.7536 3.42159 10.8997 2.96008 10.8997 2.46453C10.8997 1.10558 9.80422 0 8.45765 0C7.11107 0 6.01557 1.10558 6.01557 2.46453C6.01557 2.96008 6.16174 3.42145 6.41209 3.80829L3.77361 6.47107C3.39034 6.21837 2.93308 6.0709 2.44208 6.0709C1.09551 6.0709 0 7.17652 0 8.53547C0 9.89442 1.09551 11 2.44208 11C3.78866 11 4.88417 9.89442 4.88417 8.53547C4.88417 8.03983 4.73795 7.57828 4.48746 7.19139L7.12585 4.52875C7.50922 4.78154 7.96657 4.9291 8.4577 4.9291C8.94878 4.9291 9.40613 4.78154 9.78945 4.52875L12.4698 7.23405C12.2359 7.61205 12.1002 8.05796 12.1002 8.53543C12.1002 9.89438 13.1957 11 14.5423 11C15.8889 11 16.9844 9.89438 16.9844 8.53543C16.9844 8.03987 16.8382 7.57846 16.5879 7.19166L19.2264 4.52889C19.6097 4.78158 20.067 4.92906 20.5579 4.92906C21.9045 4.92906 23 3.82348 23 2.46453C23 1.10553 21.9044 4.56556e-05 20.5579 4.56556e-05ZM2.44208 9.98128C1.65209 9.98128 1.00939 9.33268 1.00939 8.53547C1.00939 7.73822 1.65209 7.08961 2.44208 7.08961C3.23203 7.08961 3.87477 7.73822 3.87477 8.53547C3.87477 9.33268 3.23208 9.98128 2.44208 9.98128ZM8.4577 3.91039C7.66775 3.91039 7.025 3.26178 7.025 2.46453C7.025 1.66732 7.6677 1.01867 8.4577 1.01867C9.24769 1.01867 9.89039 1.66727 9.89039 2.46453C9.89039 3.26178 9.24769 3.91039 8.4577 3.91039ZM14.5423 9.98128C13.7523 9.98128 13.1096 9.33268 13.1096 8.53543C13.1096 7.73817 13.7523 7.08957 14.5423 7.08957C15.3322 7.08957 15.975 7.73817 15.975 8.53543C15.9749 9.33268 15.3322 9.98128 14.5423 9.98128ZM20.5579 3.91039C19.7679 3.91039 19.1252 3.26178 19.1252 2.46453C19.1252 1.66732 19.7679 1.01867 20.5579 1.01867C21.3478 1.01867 21.9906 1.66727 21.9906 2.46453C21.9906 3.26178 21.3478 3.91039 20.5579 3.91039Z" fill="#9FA5AD"/>
<path d="M7.94094 6.25787C7.74382 6.05898 7.42429 6.05898 7.22717 6.25787L6.20053 7.29394C6.00346 7.49283 6.00346 7.81534 6.20058 8.01427C6.29914 8.11373 6.42829 8.16346 6.55744 8.16346C6.68659 8.16346 6.81578 8.11368 6.91429 8.01427L7.94094 6.97819C8.1381 6.7793 8.1381 6.45675 7.94094 6.25787Z" fill="#9FA5AD"/>
<path d="M16.7989 3.00383C16.6018 2.80495 16.2823 2.80495 16.0851 3.00388L15.0584 4.03996C14.8614 4.23884 14.8614 4.56135 15.0584 4.76028C15.1571 4.8597 15.2862 4.90943 15.4154 4.90943C15.5445 4.90943 15.6737 4.85965 15.7722 4.76023L16.7989 3.72415C16.996 3.52523 16.996 3.20271 16.7989 3.00383Z" fill="#9FA5AD"/>
</svg>
