<svg width="22" height="22" viewBox="0 0 22 22" fill="none" xmlns="http://www.w3.org/2000/svg">
<path d="M20.4588 8.63599L18.9453 8.37568C18.7877 7.85962 18.585 7.36183 18.3372 6.88687L19.2291 5.62184C19.6075 5.08295 19.5489 4.34768 19.085 3.88186L17.7427 2.52092C17.4904 2.26518 17.1571 2.1236 16.8013 2.1236C16.522 2.1236 16.2562 2.21037 16.031 2.37478L14.7788 3.27903C14.2923 3.01871 13.7833 2.80407 13.2563 2.64423L13.0041 1.12802C12.896 0.474957 12.3419 0 11.6888 0H9.79248C9.13935 0 8.58531 0.474957 8.47721 1.12802L8.21595 2.68076C7.71146 2.84061 7.22049 3.05068 6.75204 3.30643L5.51334 2.40218C5.28812 2.23778 5.01786 2.15101 4.73859 2.15101C4.38274 2.15101 4.04492 2.29258 3.79718 2.54832L2.45037 3.90926C1.99093 4.37508 1.92787 5.11035 2.30623 5.64924L3.2071 6.93254C2.95936 7.41206 2.76117 7.90985 2.60802 8.42591L1.11258 8.68166C0.468453 8.79126 0 9.35299 0 10.0152V11.9378C0 12.6 0.468453 13.1618 1.11258 13.2714L2.64406 13.5363C2.80171 14.0478 3.00891 14.5455 3.26116 15.0205L2.3738 16.2718C1.99543 16.8107 2.05399 17.546 2.51794 18.0118L3.86024 19.3727C4.11248 19.6285 4.4458 19.7701 4.80165 19.7701C5.08092 19.7701 5.34667 19.6833 5.57189 19.5189L6.83762 18.6055C7.29256 18.8476 7.77002 19.0439 8.261 19.1992L8.51324 20.7337C8.62134 21.3867 9.17538 21.8617 9.82851 21.8617H11.7294C12.3825 21.8617 12.9365 21.3867 13.0446 20.7337L13.3014 19.1992C13.8104 19.0394 14.3013 18.8339 14.7698 18.5827L16.0175 19.4869C16.2427 19.6513 16.513 19.7381 16.7923 19.7381C17.1481 19.7381 17.4814 19.5965 17.7337 19.3408L19.076 17.9798C19.5354 17.514 19.5985 16.7788 19.2201 16.2399L18.3282 14.9703C18.576 14.4907 18.7832 13.993 18.9363 13.4815L20.4498 13.2257C21.0939 13.1161 21.5624 12.5544 21.5624 11.8922V9.96952C21.5714 9.30732 21.1029 8.74559 20.4588 8.63599ZM20.3552 11.8922C20.3552 11.9516 20.3147 12.0018 20.2561 12.0109L18.3643 12.3306C18.1255 12.3717 17.9364 12.5498 17.8778 12.7827C17.7066 13.4541 17.4454 14.098 17.094 14.6963C16.9724 14.9063 16.9814 15.1666 17.1211 15.3676L18.2336 16.9569C18.2652 17.0025 18.2607 17.071 18.2201 17.1121L16.8778 18.4731C16.8463 18.505 16.8148 18.5096 16.7923 18.5096C16.7652 18.5096 16.7427 18.5005 16.7247 18.4868L15.1617 17.3587C14.968 17.2172 14.7067 17.208 14.4995 17.3313C13.9095 17.6876 13.2743 17.9524 12.6122 18.126C12.378 18.1854 12.2023 18.3817 12.1663 18.6192L11.8465 20.5373C11.8375 20.5967 11.7879 20.6378 11.7294 20.6378H9.83302C9.77446 20.6378 9.72491 20.5967 9.7159 20.5373L9.4006 18.6192C9.36006 18.3772 9.18439 18.1854 8.95467 18.126C8.31054 17.957 7.68894 17.6967 7.10788 17.3587C7.01329 17.3039 6.90518 17.2765 6.80158 17.2765C6.67997 17.2765 6.55384 17.3131 6.45024 17.3907L4.87372 18.5279C4.8512 18.5416 4.82867 18.5507 4.80615 18.5507C4.78813 18.5507 4.7521 18.5461 4.72057 18.5142L3.37827 17.1532C3.33773 17.1121 3.33323 17.0482 3.36476 16.998L4.47283 15.4224C4.61246 15.2214 4.62147 14.9566 4.49986 14.7465C4.14852 14.1528 3.87825 13.5089 3.70709 12.8375C3.64403 12.6046 3.45484 12.4265 3.22062 12.3854L1.31527 12.0566C1.25672 12.0475 1.21618 11.9972 1.21618 11.9378V10.0152C1.21618 9.95582 1.25672 9.90558 1.31527 9.89645L3.19359 9.57677C3.43232 9.53567 3.62601 9.35756 3.68457 9.12008C3.85123 8.44875 4.10798 7.80025 4.45481 7.20199C4.57643 6.99191 4.56292 6.7316 4.42328 6.53522L3.3017 4.93681C3.27017 4.89114 3.27467 4.82264 3.31521 4.78153L4.65751 3.4206C4.68904 3.38863 4.72057 3.38407 4.74309 3.38407C4.77012 3.38407 4.79264 3.3932 4.81066 3.4069L6.36466 4.53035C6.56285 4.67193 6.82411 4.68106 7.03131 4.55776C7.61687 4.20154 8.25199 3.92753 8.91413 3.75398C9.14385 3.69005 9.31952 3.49824 9.36006 3.26076L9.68437 1.32896C9.69338 1.2696 9.74293 1.22849 9.80149 1.22849H11.6978C11.7564 1.22849 11.8059 1.2696 11.8149 1.32896L12.1302 3.23336C12.1708 3.4754 12.3464 3.67178 12.5807 3.73115C13.2608 3.90469 13.9095 4.17414 14.513 4.53492C14.7202 4.65823 14.977 4.64909 15.1752 4.50752L16.7292 3.37493C16.7517 3.36123 16.7742 3.3521 16.7968 3.3521C16.8148 3.3521 16.8508 3.35666 16.8823 3.38863L18.2246 4.74957C18.2652 4.79067 18.2697 4.8546 18.2382 4.90484L17.1256 6.48955C16.9859 6.68593 16.9769 6.95081 17.0986 7.16088C17.4499 7.75915 17.7111 8.40308 17.8823 9.07441C17.9409 9.31189 18.1346 9.49 18.3688 9.52653L20.2606 9.85078C20.3192 9.85992 20.3597 9.91015 20.3597 9.96952V11.8922H20.3552Z" fill="#9FA5AD"/>
<path d="M10.7834 6.21097C8.21589 6.21097 6.13037 8.32544 6.13037 10.9286C6.13037 13.5317 8.21589 15.6462 10.7834 15.6462C13.3509 15.6462 15.4364 13.5317 15.4364 10.9286C15.4364 8.32544 13.3509 6.21097 10.7834 6.21097ZM10.7834 14.4131C8.88704 14.4131 7.34655 12.8512 7.34655 10.9286C7.34655 9.0059 8.88704 7.44403 10.7834 7.44403C12.6797 7.44403 14.2202 9.0059 14.2202 10.9286C14.2202 12.8512 12.6797 14.4131 10.7834 14.4131Z" fill="#9FA5AD"/>
</svg>
