<svg width="21" height="28" viewBox="0 0 21 28" fill="none" xmlns="http://www.w3.org/2000/svg">
<path fill-rule="evenodd" clip-rule="evenodd" d="M12.587 27.6915C12.191 27.6182 11.7858 27.5795 11.4004 27.466C8.58634 26.6379 6.84137 24.7224 6.18563 21.7332C6.08232 21.2625 6.06641 20.7708 6.00445 20.2401C5.93147 20.2401 5.83318 20.2401 5.73483 20.2401C4.16326 20.2401 2.59162 20.2408 1.02005 20.2398C0.303569 20.2394 -0.00102664 19.9208 0.00187175 19.1745C0.00541423 18.2642 -0.0133264 17.3528 0.0219051 16.4437C0.100419 14.4164 0.726023 12.6007 2.02186 11.0707C2.72044 10.246 3.53985 9.5855 4.52698 9.17706C5.11651 8.93309 5.49768 9.0787 5.78166 9.66669C6.08464 10.294 6.45466 10.8611 7.01824 11.2623C7.9436 11.921 9.06747 11.8559 9.92733 11.1053C10.364 10.7241 10.6876 10.2554 10.9458 9.72855C11.2724 9.06207 11.6389 8.91673 12.293 9.20329C13.3424 9.6629 14.3427 10.2136 15.2134 10.9961C15.5044 11.2577 15.6088 11.5869 15.4988 11.9664C15.3944 12.3267 15.1394 12.5648 14.7832 12.5633C14.5617 12.5623 14.32 12.458 14.1232 12.3364C13.5191 11.9625 12.9325 11.5573 12.3381 11.166C12.2887 11.1335 12.2317 11.1139 12.1807 11.0897C10.3507 14.2488 6.48893 14.3052 4.60368 11.1235C4.04455 11.4367 3.57991 11.8725 3.16956 12.37C2.24001 13.4968 1.80931 14.8366 1.71792 16.3023C1.6776 16.9488 1.70272 17.5996 1.68745 18.2483C1.68326 18.4277 1.74252 18.4795 1.90895 18.4788C3.29155 18.4727 4.67428 18.4702 6.05681 18.4784C6.23922 18.4795 6.2901 18.3896 6.33075 18.2373C6.59869 17.2333 7.07383 16.3446 7.69949 15.5398C7.94199 15.228 8.25367 15.1115 8.61738 15.2177C8.96358 15.3187 9.16022 15.5843 9.21374 15.9563C9.25677 16.2549 9.13517 16.4982 8.9601 16.7219C8.38262 17.4598 8.01664 18.2992 7.82889 19.2347C7.31304 21.8057 8.76932 24.5999 11.1189 25.5239C13.8681 26.6051 16.7698 25.3478 17.9861 22.5481C19.1296 19.9163 18.0082 16.595 15.5358 15.3115C13.9328 14.4794 12.3206 14.4757 10.7013 15.2731C10.4956 15.3744 10.2704 15.4711 10.0485 15.4884C9.67871 15.5173 9.34423 15.2198 9.25007 14.8504C9.14856 14.4523 9.30437 14.0552 9.66763 13.838C10.3292 13.4426 11.0365 13.1648 11.7875 13.039C14.4271 12.5969 16.6705 13.3993 18.4269 15.5168C19.8218 17.1986 20.3617 19.1966 20.0304 21.4002C19.6313 24.0551 18.2083 25.9325 15.8978 27.0682C15.2412 27.3909 14.5392 27.5651 13.8175 27.6458C13.733 27.6552 13.6497 27.6759 13.5658 27.6914C13.2397 27.6915 12.9134 27.6915 12.587 27.6915Z" fill="#9FA5AD"/>
<path fill-rule="evenodd" clip-rule="evenodd" d="M8.87675 6.60158e-05C9.32233 0.121814 9.78839 0.191513 10.2099 0.374372C11.7563 1.04537 12.5986 2.31876 12.7772 4.02749C12.9936 6.097 12.2473 7.75963 10.6326 8.97873C10.1764 9.32322 9.67471 9.24967 9.38603 8.81744C9.10006 8.38905 9.21058 7.87718 9.66711 7.52938C10.857 6.62306 11.3137 5.40356 11.0404 3.89675C10.8235 2.7009 9.9044 1.86036 8.73338 1.80236C8.29476 1.78059 7.83263 1.80993 7.41288 1.93404C6.33075 2.25399 5.64678 3.34918 5.67042 4.66306C5.69032 5.76799 6.1464 6.6912 6.82843 7.50491C7.43657 8.23053 8.17985 8.77688 8.96828 9.26117C9.28897 9.45809 9.4907 9.73051 9.46726 10.136C9.42836 10.8085 8.74768 11.1897 8.17831 10.8233C7.57286 10.4337 6.97284 10.023 6.42098 9.55577C5.20224 8.52378 4.37317 7.21653 4.06214 5.58243C3.69269 3.64081 4.51699 1.19855 6.58387 0.360579C7.0183 0.184412 7.49293 0.117286 7.94908 0C8.2583 6.76002e-05 8.56753 6.60158e-05 8.87675 6.60158e-05Z" fill="#9FA5AD"/>
<path fill-rule="evenodd" clip-rule="evenodd" d="M10.9669 22.5204C10.5009 22.5204 10.073 22.5216 9.64514 22.5201C8.93348 22.5178 8.62361 22.1933 8.62291 21.4505C8.62226 20.6663 8.62123 19.8821 8.62329 19.0978C8.62503 18.432 8.95951 18.0796 9.592 18.0737C10.0213 18.0695 10.4506 18.0685 10.88 18.0649C10.8956 18.0647 10.911 18.0529 10.9669 18.0299C10.9669 17.6628 10.9656 17.2789 10.9674 16.895C10.9682 16.733 10.9652 16.5698 10.9807 16.4091C11.0228 15.9707 11.3462 15.6378 11.7677 15.6321C12.6435 15.6205 13.5197 15.6191 14.3955 15.6321C14.8693 15.6392 15.188 16.0238 15.2037 16.5681C15.2108 16.8113 15.2052 17.0548 15.2054 17.2982C15.2054 17.541 15.2054 17.7839 15.2054 18.0714C15.3017 18.0714 15.3831 18.0712 15.4645 18.0714C15.8596 18.0722 16.2548 18.0651 16.6496 18.0758C17.1623 18.0896 17.5253 18.4328 17.532 18.9346C17.5442 19.8448 17.5433 20.7555 17.5323 21.6657C17.5266 22.132 17.2 22.4833 16.7524 22.508C16.3413 22.5308 15.9283 22.5195 15.5163 22.5228C15.4236 22.5236 15.3309 22.5229 15.2054 22.5229C15.2054 22.99 15.2059 23.4289 15.2052 23.8679C15.2042 24.6583 14.8949 24.9819 14.1398 24.9823C13.4098 24.9827 12.6798 24.9839 11.9497 24.9819C11.2929 24.9802 10.9721 24.6434 10.9676 23.9505C10.9645 23.4844 10.9669 23.0182 10.9669 22.5204ZM13.5129 23.1899C13.5129 22.7285 13.5128 22.2968 13.5129 21.8651C13.5133 21.0598 13.8017 20.7554 14.5659 20.7545C14.9839 20.7541 15.4019 20.7544 15.8305 20.7544C15.8305 20.4382 15.8305 20.1559 15.8305 19.8501C15.3958 19.8501 14.9773 19.8503 14.5588 19.85C13.8084 19.8495 13.5135 19.5415 13.5131 18.7582C13.5128 18.311 13.513 17.8639 13.513 17.4192C13.2089 17.4192 12.9399 17.4192 12.6478 17.4192C12.6478 17.9437 12.6546 18.4463 12.6459 18.9487C12.6366 19.4856 12.2956 19.835 11.7825 19.8488C11.6196 19.8532 11.4564 19.85 11.2935 19.8501C10.9712 19.8501 10.6491 19.8501 10.3385 19.8501C10.3385 20.1739 10.3385 20.4562 10.3385 20.7545C10.7972 20.7545 11.2337 20.7527 11.6703 20.7549C12.3389 20.7583 12.6457 21.0792 12.6485 21.7775C12.6502 22.2434 12.6488 22.7093 12.6488 23.1899C12.9456 23.1899 13.2151 23.1899 13.5129 23.1899Z" fill="#9FA5AD"/>
</svg>
